<svg viewBox="0 0 512 512" width="24" height="24" xml:space="preserve" xmlns="http://www.w3.org/2000/svg" enable-background="new 0 0 512 512"><path d="M17.397 166.28h106.716v328.97H17.397zM414.789 170.138c-1.133-.355-2.207-.743-3.396-1.078a66.751 66.751 0 0 0-4.328-.833c-5.662-1.139-11.875-1.946-19.148-1.946-62.211 0-101.678 45.372-114.674 62.894V166.28H166.526v328.97h106.716V315.813s80.643-112.628 114.674-29.911V495.25h106.688V273.257c0-49.708-33.975-91.127-79.815-103.119zM121.789 69.085c0 28.909-23.373 52.337-52.195 52.337-28.824 0-52.196-23.429-52.196-52.337 0-28.903 23.372-52.335 52.196-52.335 28.822 0 52.195 23.432 52.195 52.335zm0 0" fill="#ffffff" class="fill-1b80e4"></path></svg>