<?xml version="1.0" encoding="UTF-8"?>
<svg version="1.1" viewBox="0 0 1600 1209" width="1280" height="1280" xmlns="http://www.w3.org/2000/svg">
<path transform="translate(256)" d="m0 0h24l34 3 29 4 40 8 30 8 43 14 32 13 24 11 32 16 23 13 29 17 32 19 6 1 26-6 20-3 25-2h21l32 3 23 4 26 7 20 7 20 9 8 4-1-5 1-36 6-9 8-4h225v-8l4-8 8-7 9-2 4 5 5 14v4l34-7 26-3h46l26 3 21 4 8 2 1-4 7-2 3-4-2-5-1-3 5 1 3 1 1-5 7 3 4-4 5 1 8 4 18 3 10 5 5 10 5 15v10l-1 4 4 4 14 8 15 10 14 10 16 13 14 12 16 15 9 9 7 8 10 11 9 11 14 18 22 33 12 20 14 26 14 30 13 34 9 31 6 28 5 37v33l-5 35-8 37-17 59-20 66-16 51-18 56-13 37-12 29-12 25-11 20-11 16-10 13-9 10-7 8-7 7-22 18-16 11-20 12-28 14-27 11-36 12-34 9-26 6-13 5-13 8-9 8 4-2 5-5 7-4 4-1h1l1-3 10-4 4-1-1 4-8 20-7 9-8 7-6 3h-13l-5 1-3-8v-13l3-8 6-7 5-4-16 2-33 2h-47l-29-2-26-3-3-1-1 12-4 11v15l4 20 1 13-6 2h-18l-10-2-16-6-4-4 1-7 4-5 7-2-4-6-3-10 1-5 6-8 2-5-6-3-7-8-3-11v-2l-15-3-31-7 1 8 6 17 1 8-3 6v6l5 2-4 12-1 6v9l2 12 2 10v5l-4 2-13 1-13-1-18-6-6-4-1-5 3-6 4-3 10-3-9-19v-6l2-2 5-1-1-3-6-5v-8l5-10-1-6-1-4-1-15-1-7-12-2-31-6-27-4-36-3h-19l-31 3-24 5-24 8-25 12-18 11-18 13-16 12-14 11-18 14-19 14-20 13-18 10-16 8-19 8-30 10-25 6-36 5-10 1h-29l-33-4-25-5-22-6-20-7-25-11-21-11-19-12-12-9-14-12-12-13-10-14-10-19-5-17-2-10v-22l3-15 4-12 7-14 8-11 9-10 14-14 14-11 24-18h2l-8-61v-20l3-22 5-21 2-11 1-4v-21l-4-38-1-17-3-6-1-6v-14l2-10-53 1-3 5-3 11-5 8-4 3-8 1-8-2-3-4 1-9 6-9 3-5h-25l-9-6-4-7-1-150-7-8-8-8-7-8-10-13-11-17-9-16-11-25-8-24-7-28-4-22-4-28v-62l6-39 6-27 8-26 10-24 12-23 12-18 11-14 12-13 12-12 10-8 17-12 15-9 21-10 21-8 28-7 24-4zm444 120-23 2-24 4-18 4 4 4 28 16 18 10 27 14 24 11 12 3 18 3 22 6 21 8 9 4 28 3h8l1-17v-40l-8-5-23-10-27-9-26-6-19-3-23-2zm59 72m1 1 2 2 30 9 7 1-4-3-19-6-12-3zm-503 529-3 7-10 48-4 26-6 20-3 15-2 42-3 23v9l5-3 7-7 7-8 10-12 10-14 6-10 6-28 6-23v-8l-3-11-2-16-7-17-7-18-4-14zm944 365-2 2h3zm-5 2m-3 1m13 3m1 1 1 2zm-22 1m-4 1 4 1zm-2 1m29 1m-16 2 2 11 1 6h1v-7l-3-10zm10 0 1 4zm-29 3v2h8l-2-2zm11 3m19 0 1 4zm-18 1 1 8h1l-1-8zm-7 2m-1 1-7 3 1 2 5-1 2 9h3l-2-6-1-7zm10 5v6l2-1-1-5z" fill="#856EFD"/>
<path transform="translate(256)" d="m0 0h24l34 3 29 4 40 8 30 8 43 14 32 13 24 11 32 16 23 13 29 17 32 19 1 3-24 8-9 4h-3v2l-15 6-9 6-5 2-14 9-6 3-3 3-14 10-14 12-10 9-13 13-7 8-11 14-12 17-10 16-10 19-4 10h-2l-1 7-7 19-3 7-3 12-6 26-3 28 2-1 3-22 8-35 5-17 10-25 10-21 4-6 2-5h2v-3l3-3 2-5 3-2 1-4 5-5 9-12 1-3 4-4 4-5 5-5 7-8 9-8 8-7 4-2 2-4 6-4h2l1-3 5-2 5-5 5-2 4-4 10-5 9-5 6-3h2v-2h2v-2l9-2 24-10 6-1v-2l12-4 5 1 25 14 21 12 29 15 24 11v1l-38 1-21 2-23 5-27 9-7 2v2l-8 3-15 8-10 6-11 8-13 10-15 14-9 9-9 11-11 15-7 10-5 10-6 11-5 13-4 10-3 8-5 18-3 18-1 11h2l2-9 3-17 3-15 8-23 4-8 4-10 4-8h2l1-5 1-2h2l1-4 4-7 4-4 1-3h2v-2h2l2-4 6-9 5-5 11-12 7-5h2l2-4 3-1 2-4h3l1-3 8-5h2l1-3 7-4 7-3 4-3h2v-2l8-4h4v-2l6-1v-2l16-6 10-3 5-2 31-5 28-2h11l20 2v2l16 1 21 7 15 4v2h6l16 7 6 2v2l6 2 6 4 7 3v2h3v2l4 1 5 4v101l-4-4-7-10-9-11-11-11-5-3v-2l-4-2-7-5v-2l-6-2-9-6-17-8-24-7-19-3h-30l-17 1-23 6-9 4-12 5-9 5-15 10-13 11-14 14-12 16-4 7-8 16-3 7h-2l-1 8-2 4-5 21-1 11v33l2 15 2 9 3 9 7 17 8 16 1 4h2v3h2v3h2l9 12v2l3 1 7 8 7 6 5 5 11 8 15 9 13 6 24 8 10 3 11 1 2 1v69l-4 1-26-4-28-7-9-4-15-6-14-7-5-3-16-10-14-11-13-11-15-15-11-14-10-14-9-15-1-3-2-1 3 10 8 13v2h2l6 9 4 5v2l3 1 1 4 3 1 7 8 15 15 9 7v2l5 2 15 10 13 8 16 8 10 4 16 6 5 2 17 3v2l16 1 7 1v2h9l2 1v64h-10l-29-4-31-7-18-6-24-10-8-5-7-3-11-6-15-10-5-3v-2l-5-2-13-10-14-12-2-1 3 6 14 12 28 20 11 6 19 10 10 5 13 5 6 3 9 2 3 2 17 4 15 4 44 7v74l3 8 5 5 6 4 3 1h146l2 57 5 46 3 26v37l6 18 3 18 3 14 1 22-25-5-36-6-29-3-15-1h-19l-31 3-24 5-24 8-25 12-18 11-18 13-16 12-14 11-18 14-19 14-20 13-18 10-16 8-19 8-30 10-25 6-36 5-10 1h-29l-33-4-25-5-22-6-20-7-25-11-21-11-19-12-12-9-14-12-12-13-10-14-10-19-5-17-2-10v-22l3-15 4-12 7-14 8-11 9-10 14-14 14-11 24-18h2l-8-61v-20l3-22 5-21 2-11 1-4v-21l-4-38-1-17-3-6-1-6v-14l2-10-53 1-3 5-3 11-5 8-4 3-8 1-8-2-3-4 1-9 6-9 3-5h-25l-9-6-4-7-1-150-7-8-8-8-7-8-10-13-11-17-9-16-11-25-8-24-7-28-4-22-4-28v-62l6-39 6-27 8-26 10-24 12-23 12-18 11-14 12-13 12-12 10-8 17-12 15-9 21-10 21-8 28-7 24-4zm1 722-3 7-10 48-4 26-6 20-3 15-2 42-3 23v9l5-3 7-7 7-8 10-12 10-14 6-10 6-28 6-23v-8l-3-11-2-16-7-17-7-18-4-14z" fill="#42B3D7"/>
<path transform="translate(1362,125)" d="m0 0 5 2 14 8 15 10 14 10 16 13 14 12 16 15 9 9 7 8 10 11 9 11 14 18 22 33 12 20 14 26 14 30 13 34 9 31 6 28 5 37v33l-5 35-8 37-17 59-20 66-16 51-18 56-13 37-12 29-12 25-11 20-11 16-10 13-9 10-7 8-7 7-22 18-16 11-20 12-28 14-27 11-36 12-34 9-26 6-13 5-13 8-9 8 4-2 5-5 7-4 4-1h1l1-3 10-4 4-1-1 4-8 20-7 9-8 7-6 3h-13l-5 1-3-8v-13l3-8 6-7 5-4-16 2-33 2h-47l-29-2-26-3-4-1-4-17-4-18-1-24-5-20-10-29-4-9v-11l1-4v-12l-7-23v-31l1-10v-28l-5-25-1-8h32l1 4v19l-3 10-4 6-7 6 16-2 11-4 8-6 6-8 2-6 1-19 58-1 6-4 6-8 1-4v-246l-5-10-6-5-3-1-106-1 1-9 4-11 6-19 5-20 5-37v-43l-4-31-2-11v-4h135l1 5v12l-2 11-5 8-6 5 12-1 12-4 9-6 5-10 1-4v-16l52-1 9-2v6l-6 12-3 9-3 18-4 14-1 45-4 29v7l3 9 1 8 2 3 2 38v15l-1 10 1 10-8 10v6l1 4-5 2-8 8-11 6-10 4-14 2-2 2 1 5 4 5 5 2h24l12-2 38-2 5-2-1-5-1-7 4-8-1-6-6-8 1-5 6-11 2-16 1-59-2-13 7-11 12-36 2-5 2 4 2 13 2 20 1 3 1 12 6 11 6 1 2 47v16l-2 6-4 25-3 8-2 5-9 9-11 9-7 6-3 3-5 2v6l20 4h22l10-4h4v-2l13-3v-13l-2-4v-9l-1-10 5-6 5-27 4-32 2-6v-8l-4-23-3-10v-8l-1-6-1-16-1-4v-10l5-24 2-15-1-3v-12l2-9h-4l-1-2-3-23v-4l10-2 2-7 9-6 5-7 9-7 3-3 11-8 5-3 3-4 2-5 1-11 2-5 1-21h2l-1-16-1-5-1-35-4-13-4-8-9-10-11-9-10-9-3-1v-2l-5-1-3-3-1-5 5-3 4-10 11-15zm-161 962-2 2h3zm-5 2m-3 1m13 3m1 1 1 2zm-22 1m-4 1 4 1zm-2 1m29 1m-16 2 2 11 1 6h1v-7l-3-10zm10 0 1 4zm-29 3v2h8l-2-2zm11 3m19 0 1 4zm-18 1 1 8h1l-1-8zm-7 2m-1 1-7 3 1 2 5-1 2 9h3l-2-6-1-7zm10 5v6l2-1-1-5z" fill="#1C2430"/>
<path transform="translate(507,646)" d="m0 0 8 6 13 11 10 7 14 10 11 6 19 10 10 5 13 5 6 3 9 2 3 2 17 4 15 4 44 7v74l3 8 5 5 6 4 3 1h146l2 57 5 46 3 26v37l6 18 3 18 3 14 1 22-25-5-36-6-29-3-15-1h-19l-31 3-24 5-24 8-25 12-18 11-18 13-16 12-14 11-18 14-19 14-20 13-18 10-16 8-19 8-30 10-25 6-36 5-10 1h-29l-33-4-25-5-22-6-20-7-25-11-21-11-19-12-12-9-14-12-12-13-10-14-10-19-5-17-2-10v-22l3-15 4-12 7-14 8-11 9-10 14-14 14-11 24-18 3 1v11l-2 8 9 1 3 1 13 1 5 1 4 3v2l12-2 2-6-6-1-6-3-3-3v-2h-2l-1-4h-2l-5-13-1-14 8-7 11-12 11-14 14-21 1 3v45l-4 26h7l7 2h7l4-2-1-9-1-13 12-59 4-22 2-18 4-16 1-11v-10l1-7v-29l-1-12-1-29v-17h92l1 2v21l-4 13-4 5-6 4 16-2 11-4 8-6 5-7 3-11v-15l58-1 8-5 4-6 1-4z" fill="#1C2430"/>
<path transform="translate(256)" d="m0 0h24l34 3 29 4 40 8 30 8 43 14 32 13 24 11 32 16 23 13 29 17 32 19 1 3-24 8-9 4h-3v2l-15 6-9 6-5 2-14 9-6 3-3 3-14 10-14 12-10 9-13 13-7 8-11 14-12 17-10 16-10 19-4 10h-2l-1 7-7 19-3 7-3 12-6 26-4 28-4 1h-48l-13-1 1-4 10-6 4-5v-9l-3-3v-2l-7 3-10 9-8 10-4 7-3 1h-34l-35-1 10 20v7l-1 3h-2l-7 14-2 6v17l1 11-4 10-6 5-10 1v36l-4 11-7 9-9 5-4 1h-15l-21-5-11-7-6-6v-6l11-22 10-27 5-20v-17l-3-9v-13l4-8 9-7 14-7 1-2-106 1-8 4-6 8-1 2-1 100-4-2-12-12-7-8-10-13-11-17-9-16-11-25-8-24-7-28-4-22-4-28v-62l6-39 6-27 8-26 10-24 12-23 12-18 11-14 12-13 12-12 10-8 17-12 15-9 21-10 21-8 28-7 24-4z" fill="#1C2430"/>
<path transform="translate(703,259)" d="m0 0h30l19 3 24 7 19 9 8 6 5 2 2 3 5 3 4 3v2l5 2 15 15 10 13 6 11 5 9 6 11v3h2l4 14 2 5 3 12 2 16v29l-4 24-3 9-4 11-10 22h-2l-2 7-3 1-1 5-6 8-2 1-1 3h-3l-2 5-6 7h51l2 8 4 3 1 11 10 1 5 6 5 13 1 7h17l14-2 6-4 6-15 5-13 2-15 3-1 5 1v-15l4-1 6 4 8 3v2l5 2 4 5v9l-2 11 3 9 10 5 1 7v8l1 7 3 24-1 12-4 12-7 8-6 4-3 16-6 15-1 7v18l3 16 5 14 8 14 9 27 3 12v6l-28 5-49 7-18 2h-14l-4-1h-27l-26 1-9 2-6 3-9 1h-104l-8-4-5-5-4-6-1-4v-19l1-55-11-1-33-5-19-5-15-4-4-2-7-2-13-5-15-7-25-13-9-6-10-7-16-12-14-12-1-5 4 2 14 12 14 10 2 1v2l5 2 18 12 18 9 9 5 8 3 15 6 18 6 28 6 29 4 10 1v-64l-11-1v-2l-18-1-5-1v-2l-9-1-12-2-11-5-10-4-12-5-19-10-11-8-13-8-5-5-12-11-9-9v-2l-4-2-5-6-9-11-4-6v-2h-2l-9-15-2-5v-5l3 1 6 12 11 16 11 14 11 12 10 10 14 11 15 11 15 9 9 5 13 5 8 4 11 4 30 7 24 3 1-69-18-2-24-8-12-5-15-8-22-16-14-14-9-11-3-4v-2h-2v-3h-2v-3h-2l-6-12-7-15-4-10-4-13-2-10-1-10v-33l2-16 4-16 4-12h2l1-5 8-17 4-5 4-7 11-14 17-17 13-10 11-7 15-8 11-4 7-3 20-5z" fill="#FCFCFD"/>
<path transform="translate(1313,71)" d="m0 0 5 1 8 4 18 3 10 5 5 10 5 15v10l-2 7-9 13-4 6-4 9-5 2 3 6 6 3v2l4 1 6 5v2l4 2 11 9 9 10 4 8 4 13 1 35 1 5v16h-2v21l-2 5-1 11-4 8-4 4-7 4-7 5h-2l-2 4-9 7-5 7-8 5-2 7-3 1h-7l3 17 1 12h4l-1 9v12l1 4-5 30-2 8v10l1 4 1 16 1 9 1 8 4 17 2 13v8l-2 6-4 32-5 27-5 6 1 15 1 5 1 3v13l-9 3h-5v2l-14 5h-22l-16-3-4-2-1-6 2-2 6-1 1-3 11-9 16-15 3-10 3-13 3-17 1-3v-16l-1-22v-25h-6l-6-9-1-3-1-12-2-9-2-21-2-9-9 29-6 15-5 7 2 13-1 59-2 16-7 13 1 4 6 9-1 7-3 5 1 7 1 5-6 3-38 2-12 2h-24l-6-3-5-6 1-5 2-2 17-3 11-5 9-6 7-7h4l-2-4v-6l8-10-1-15 1-5v-15l-2-38-2-3-2-11-2-6 1-14 3-22 1-45 5-19 3-17 5-12 3-5v-5l-8 2h-52l1 2v14l-4 11-5 6-12 6-13 3h-6l-1-2 8-6 4-10 1-7v-17h-136v-1l27-1-5-3 2-6 5-4h2v-2l4-2h3l2-11 2-9 1-13 5-15 2-3h2l1-7 6-9 1-7 1-2h2l1-4 5-4 9-3 46-1 2-1v-11l-6-2-72-2-1-7 1-2 1-7 9-6 3-1 1-8-2-8h-2l-1-2-5-2 1-8 8-7 2-1 21-1 57-1 33-1 2-1v-9l-1-2-3-1-101-1-18-1-7-3-3-3-1-7 5-8 1-10h2v-6l3-3h2v-5l8-4 6-5h2v-2l9-2 5-2h28l7-3 25-5 26-3h46l26 3 21 4 8 2 1-4 7-2 3-4-2-5-1-3 5 1 3 1 1-5 7 3z" fill="#6042FD"/>
<path transform="translate(707,262)" d="m0 0h18l23 2 9 3 8 2 11 4 8 5 7 2 12 8 7 4 5 4v2l3 1v2l5 2 6 5v2h2l5 7 4 4 3 4v2h2l1 4h2v3h2v3h2l3 6 4 6 8 21 4 16 3 16 1 1v37l-1 2-2 14-4 15-3 7-3 9-6 12-10 16-9 11-12 13-1 1h-71l-1-1-1-22-4-8-7-6-4 1-3 3h-2l-2 5-7 8-1 2v9l5 9-12 1-8 4-6 10-1 26-10-1-21-5-12-4-9-4-15-8-7-4v-2l-4-2-15-11-7-8-9-10-10-14-9-16-4-8-4-13-3-9-5-25v-29h2l1-16 3-15 7-19 9-17 3-6h2v-3h2l2-4 5-8 5-5 4-5 5-5 7-5 4-4h2v-2l4-1v-2l6-4h3v-2l17-9 10-3 8-3 12-4 15-2 2-1z" fill="#1C2430"/>
<path transform="translate(353,370)" d="m0 0h4l4 5v9l-6 7-7 4h-2l-2 7-8 16-18 37-10 25-15 24-8 13-3 10v7l7 9 1 3v12l-1 5v20l7 31 9 20 2 6 4 25 2 12 2 48 1 12v29l-1 7v11l-2 15-4 16-2 20-15 74 1 13 1 9-5 3h-7l-14-3 1-15 2-11v-50l5-25 6-23v-8l-3-11-2-16-7-17-7-18-4-14h-2l-4 15-9 45-3 20-6 20-3 15-2 42-3 23v9l3 17 3 9h2l1 4h2l4 5 11 4-1 6-1 1-12 1v-2l-9-3-13-1-12-3 1-8v-11l-6-47-2-15v-20l3-22 5-21 2-11 1-4v-21l-4-38-1-17-3-6-1-6v-14l2-10-53 1-3 5-3 11-5 8-4 3-8 1-8-2-3-4 1-9 6-9 3-5h-25l-9-6-4-7-1-152 1-100 6-9 7-5 3-1h106l-2 4-16 8-5 4-4 8v13l3 9v17l-6 23-10 26-10 20v6l9 8 7 4 21 5h15l10-4 5-5 5-7 3-9v-33l1-3 12-3 4-4 3-9-1-11v-17l5-13 5-7h2v-10l-9-17v-3h72l2-5 8-11 9-9z" fill="#FCFCFD"/>
<path transform="translate(1273,154)" d="m0 0h8l5 5 8-1 6-1 3 12 4 4 3 1h16l9-4 6-4 2-2 6 1v2l4 1 6 5v2l4 2 11 9 9 10 4 8 4 13 1 35 1 5v16h-2v21l-2 5-1 11-4 8-4 4-7 4-7 5h-2l-2 4-9 7-5 7-8 5-2 7-3 1h-7l3 17 1 12h4l-1 9v12l1 4-5 30-2 8v10l1 4 1 16 1 9 1 8 4 17 2 13v8l-2 6-4 32-5 27-5 6 1 15 1 5 1 3v13l-9 3h-5v2l-14 5h-22l-16-3-4-2-1-6 2-2 6-1 1-3 11-9 16-15 3-10 3-13 3-17 1-3v-16l-1-22v-25h-6l-6-9-1-3-1-12-2-9-2-21-2-9-9 29-6 15-5 7 2 13-1 59-2 16-7 13 1 4 6 9-1 7-3 5 1 7 1 5-6 3-38 2-12 2h-24l-6-3-5-6 1-5 2-2 17-3 11-5 9-6 7-7h4l-2-4v-6l8-10-1-15 1-5v-15l-2-38-2-3-2-11-2-6 1-14 3-22 1-45 5-19 3-17 5-12 4-7 2-8 3-6 1-79 2-9 1-11v-30l-3-10v-46l5-2z" fill="#42B2D8"/>
<path transform="translate(713,188)" d="m0 0h11l20 2v2l16 1 21 7 15 4v2h6l16 7 6 2v2l6 2 6 4 7 3v2h3v2l4 1 5 4v101l-4-4-7-10-9-11-11-11-5-3v-2l-4-2-7-5v-2l-6-2-9-6-17-8-24-7-19-3h-30l-17 1-23 6-9 4-12 5-9 5-15 10-13 11-14 14-12 16-4 7-8 16-3 7h-2l-1 8-2 4-5 21-1 11v33l2 15 2 9 3 9 7 17 8 16 1 4h2v3h2v3h2l9 12v2l3 1 7 8 7 6 5 5 11 8 15 9 13 6 24 8 10 3 11 1 2 1v69l-4 1-26-4-28-7-9-4-15-6-14-7-5-3-16-10-14-11-13-11-15-15-11-14-10-14-12-20-1-114-4-8-1-3-10-4-8-1 1-9 3-17 3-15 8-23 4-8 4-10 4-8h2l1-5 1-2h2l1-4 4-7 4-4 1-3h2v-2h2l2-4 6-9 5-5 11-12 7-5h2l2-4 3-1 2-4h3l1-3 8-5h2l1-3 7-4 7-3 4-3h2v-2l8-4h4v-2l6-1v-2l16-6 10-3 5-2 31-5z" fill="#1C2431"/>
<path transform="translate(976,806)" d="m0 0h5l3 13 3 9 5 25v28l-1 10v31l7 23v12l-1 4v11l6 15 10 30 3 13 1 24 4 18 4 17-1 12-4 11v15l4 20 1 13-6 2h-18l-10-2-16-6-4-4 1-7 4-5 7-2-4-6-3-10 1-5 6-8 2-5-6-3-7-8-3-11v-2l-15-3-31-7 1 8 6 17 1 8-3 6v6l5 2-4 12-1 6v9l2 12 2 10v5l-4 2-13 1-13-1-18-6-6-4-1-5 3-6 4-3 10-3-9-19v-6l2-2 5-1-1-3-6-5v-8l5-10-1-6-1-4-1-15-3-13-2-23-4-17-2-12-4-10-1-4v-38l-4-33-4-38-1-26v-31l-16 1h-24v-1l9-2 6-3 7-1 26-1h27l4 1h14l33-4z" fill="#F0839D"/>
<path transform="translate(703,259)" d="m0 0h30l19 3 24 7 19 9 8 6 5 2 2 3 5 3 4 3v2l5 2 15 15 10 13 6 11 5 9 6 11v3h2l4 14 2 5 3 12 2 16v29l-4 24-3 9-4 11-10 22h-2l-2 7-3 1-1 5-6 8-2 1-1 3h-3l-2 5-6 7h51l2 8 4 3-1 4v7l4 10 10 12 3 9v9l-1 1h-15l-14-3-4-2h-5l-7 9-5 5-8 1-3-1h-10l-13-6-9-3-15-6-7-6v-2h-2l-20-26-7-10-6-12 1-2h71l8-8 9-11 10-14 5-9 7-14 3-10 3-9 3-13 1-9 1-2v-37l-2-7-4-19-7-21-6-12-3-4v-3h-2v-3h-2v-3h-2l-1-4h-2l-5-7v-2l-3-1-4-5v-2h-2v-2l-4-2-7-5-4-5-8-6-11-6-6-4-9-3-6-4-11-4-14-3-1-1-23-2h-18l-12 1-8 2-13 2-8 3-22 8-11 6h-2v2l-7 4h-2v2l-4 1v2l-4 2-10 10-5 4-6 8h-2l-2 5-5 7h-2v3h-2l-1 5-3 5-8 15-6 17-3 15-2 16h-2l1 29 5 25 3 9 4 13 10 19 10 15 12 14 6 6v2l4 2 15 11v2l4 1 6 4 14 7 16 6 14 4 20 4v-26l6-10 6-4 3-1h13l8 7 5 11-5 6 2 9 18 27 9 16 18 10 16 9 21 11 20 8 4 2-3 22-3 32-4 24-4 13-1 16-5 29-1 28-2 1h-104l-8-4-5-5-4-6-1-4v-19l1-55-11-1-33-5-19-5-15-4-4-2-7-2-13-5-15-7-25-13-9-6-10-7-16-12-14-12-1-5 4 2 14 12 14 10 2 1v2l5 2 18 12 18 9 9 5 8 3 15 6 18 6 28 6 29 4 10 1v-64l-11-1v-2l-18-1-5-1v-2l-9-1-12-2-11-5-10-4-12-5-19-10-11-8-13-8-5-5-12-11-9-9v-2l-4-2-5-6-9-11-4-6v-2h-2l-9-15-2-5v-5l3 1 6 12 11 16 11 14 11 12 10 10 14 11 15 11 15 9 9 5 13 5 8 4 11 4 30 7 24 3 1-69-18-2-24-8-12-5-15-8-22-16-14-14-9-11-3-4v-2h-2v-3h-2v-3h-2l-6-12-7-15-4-10-4-13-2-10-1-10v-33l2-16 4-16 4-12h2l1-5 8-17 4-5 4-7 11-14 17-17 13-10 11-7 15-8 11-4 7-3 20-5z" fill="#ED74FE"/>
<path transform="translate(1011,355)" d="m0 0 4 4 4 25 2 17v43l-5 37-6 24-10 30-1 5h106l6 3 6 7 3 7v246l-3 7-7 8-4 2h-58v19l-4 9-7 8-10 6-11 3-12 1-1-2 8-6 5-10 1-5v-23h-33l-2-3-1-11 1-1 24-4h4l-5-21-8-24-9-16-5-16-2-12v-18l2-10 5-12 3-16 10-8 4-6 4-16-1-15-2-10v-10l-1-2v-15l-6-2-6-4-2-11 2-8v-9l-1-2h2l3-10h2l1-6 4-12 5-22 2-6 3-23 2-11v-47l-2-21-3-16z" fill="#AE5BFD"/>
<path transform="translate(864,353)" d="m0 0 6 1 69 1 3 8 3 13 1 10 1 1 2 15v40l-5 29-4 16-3 10-3 9-2 7 2-1 8-22 5-18 4-25v-45l-2-19-3-12-1-7-2-6v-3h67l5 25 2 21v47l-4 27-2 10-4 18-2 7-6 18h-2l-1 7-2 3h-3l-4-4-2-1v-2l-10-3-4-3h-3l-1 15h-7l-2 15-5 13-6 15-5 4-6 2-16 1-11-1-3-10-5-12-3-3-10-1-1-1-1-11-5-5v-6h-51l2-4 6-8h3l1-4 5-5 4-8 3-3 2-5h2l1-5 8-17 4-11 3-9 4-24v-29l-2-16-4-16-4-10v-5h-2z" fill="#1D2531"/>
<path transform="translate(1273,154)" d="m0 0h8l5 5 8-1 6-1 3 12 4 4 3 1h16l9-4 6-4 2-2 6 1v2l4 1 6 5v2l4 2 11 9 9 10 4 8 4 13 1 35 1 5v16h-2v21l-2 5-1 11-4 8-4 4-7 4-7 5h-2l-2 4-9 7-5 7-9 6-8 3-6 1h-9l-1 5-4 2h-6l-3-5v-7l5-2-3-9-5 1-7 2-17 6-5 3h-2l-1 5-29-3v-7l4-8 1-79 2-9 1-11v-30l-3-10v-46l5-2z" fill="#FBFBFD"/>
<path transform="translate(632,131)" d="m0 0 5 1 25 14 21 12 29 15 24 11v1l-38 1-21 2-23 5-27 9-7 2v2l-8 3-15 8-10 6-11 8-13 10-15 14-9 9-9 11-11 15-7 10-5 10-6 11-5 13-4 10-3 8-5 18-4 23-1 6-46 1-18-1v-16l4-21 7-29 7-20 11-25 7-13 4-8h2v-3l3-3 2-5 3-2 1-4 5-5 9-12 1-3 4-4 4-5 5-5 7-8 9-8 8-7 4-2 2-4 6-4h2l1-3 5-2 5-5 5-2 4-4 10-5 9-5 6-3h2v-2h2v-2l9-2 24-10 6-1v-2z" fill="#1D2431"/>
<path transform="translate(219,637)" d="m0 0h37l11 1 5 2h17l12-2h5l2 10 4 21 1 8 2 48 1 12v29l-1 7v11l-2 15-4 16-2 20-15 74 1 13 1 9-5 3h-7l-14-3 1-15 2-11v-50l5-25 6-23v-8l-3-11-2-16-7-17-7-18-4-14h-2l-4 15-9 45-3 20-6 20-3 15-2 42-3 23v9l3 17 3 9h2l1 4h2l4 5 11 4-1 6-1 1-12 1v-2l-9-3-13-1-12-3 1-8v-11l-6-47-2-15v-20l3-22 5-21 2-11 1-4v-21l-4-38-1-17-3-6-1-6v-14l3-15 11-29 2-7z" fill="#856EFD"/>
<path transform="translate(103,399)" d="m0 0h106l-2 4-16 8-5 4-4 8v13l3 9v17l-6 23-10 26-10 20v6l9 8 9 5-3 23-3 16-5 12-12 24-10 25-7 16-5 8-5 5h-27l-9-6-4-7-1-152 1-100 6-9 7-5z" fill="#5BD9D9"/>
<path transform="translate(978,819)" d="m0 0 7 1 5 21 2 12v28l-1 10v31l7 23v12l-1 4v11l6 15 10 30 3 13 1 24 4 18 4 17-1 12-4 11v15l4 20 1 13-6 2h-18l-10-2-16-6-4-4 1-7 4-5 7-2-4-6-3-10 1-5 6-8 2-5-6-3-7-8-3-11v-2l-15-3-26-6-4-2 1-8v-15l-1-33-1-17-2-5v-7l4-9v-9l-2-13v-39l4-9 2 1 11 30 6 18 3 7 2 14 6 18 4 8 2 6 2 1v3h2v-2l4-1-1-9-2-10 3-5 2-6v-3l-5-2-6-3 2-4 5-3h2l-1-7v-18l2-5v-15l1-17-10 1-8 4-6 2-2-2 3-2h3v-2l10-5 6-4 3-1 1-4-1-12 1-20 1-3v-12l-1-8 2-9z" fill="#FB5295"/>
<path transform="translate(507,537)" d="m0 0h2l6 12 3 4v2h2l6 9 4 5v2l3 1 1 4 3 1 7 8 15 15 9 7v2l5 2 15 10 13 8 16 8 10 4 16 6 5 2 17 3v2l16 1 7 1v2h9l2 1v64h-10l-29-4-31-7-18-6-24-10-8-5-7-3-11-6-15-10-5-3v-2l-5-2-13-10-15-13-1-1z" fill="#1D2531"/>
<path transform="translate(1237,356)" d="m0 0 23 2 8 2v5l3 3 1 12-2 16-3 1v9l6 18v10l-2 11v10l-4 10-1 9-1 5h2l2-2-2 9-7 11 2 13-1 59-2 16-7 13 1 4 6 9-1 7-3 5 1 7 1 5-6 3-38 2-12 2h-24l-6-3-5-6 1-5 2-2 17-3 11-5 9-6 7-7h4l-2-4v-6l8-10-1-15 1-5v-15l-2-38-2-3-2-11-2-6 1-14 3-22 1-45 5-19 3-17 5-12z" fill="#5BD8D9"/>
<path transform="translate(943,355)" d="m0 0h67l5 25 2 21v47l-4 27-2 10-4 18-2 7-6 18h-2l-1 7-2 3h-3l-4-4-2-1v-2l-10-3-4-3h-3l-1 15h-5v-2h-2l-3-7-11-9-11-8 1-8 6-16 5-18 4-25v-45l-2-19-3-12-1-7-2-6z" fill="#1D2531"/>
<path transform="translate(225,389)" d="m0 0h13l10 4 5 5 3 1 10 20v7l-1 3h-2l-7 14-2 6v17l1 11-4 10-6 5-10 1v36l-4 11-7 9-9 5-4 1h-15l-21-5-11-7-6-6v-6l11-22 10-27 5-20v-17l-3-9v-13l4-8 9-7 14-7 5-5 7-5z" fill="#945D7F"/>
<path transform="translate(271,857)" d="m0 0 1 3v45l-4 26h7l7 2h7l4-2 2-4 2 5 5 4 1 2 11 4 8 2 6 4 18 3 26 6 14 5 4 3-1 5-8 5-17 5-24 4-31 3-33 1h-32l-41-2-42-6-11-2-5 4 2-4 19-19 14-11 24-18 3 1v11l-2 8 9 1 3 1 13 1 5 1 4 3v2l12-2 2-6-6-1-6-3-3-3v-2h-2l-1-4h-2l-5-13-1-14 8-7 11-12 11-14 10-15z" fill="#2D3346"/>
<path transform="translate(703,259)" d="m0 0h30l19 3 24 7 19 9 8 6 5 2 2 3 5 3 4 3v2l5 2 15 15 10 13 6 11 5 9 6 11v3h2l4 14 2 5 3 12 2 16v29l-4 24-3 9-4 11-10 22h-2l-2 7-3 1-1 5-6 8-2 1-1 3h-3l-2 5-6 7h51l2 8 4 3-1 4v7l4 10 10 12 3 9v9l-1 1h-15l-14-3-4-2h-5l-7 9-5 5-8 1-3-1h-10l-13-6-9-3-15-6-7-6v-2h-2l-20-26-7-10-6-12 1-2h71l8-8 9-11 10-14 5-9 7-14 3-10 3-9 3-13 1-9 1-2v-37l-2-7-4-19-7-21-6-12-3-4v-3h-2v-3h-2v-3h-2l-1-4h-2l-5-7v-2l-3-1-4-5v-2h-2v-2l-4-2-7-5-4-5-8-6-11-6-6-4-9-3-6-4-11-4-14-3-1-1-23-2h-18l-12 1-8 2-13 2-8 3-22 8-11 6h-2v2l-7 4h-2v2l-4 1v2l-4 2-10 10-5 4-6 8h-2l-2 5-5 7h-2v3h-2l-1 5-3 5-8 15-6 17-3 15-2 16h-2l1 29 5 25 3 9 4 13 10 19 10 15 12 14 6 6v2l4 2 15 11v2l4 1 6 4 14 7 16 6 16 5v1h-12l-12-4-12-5-15-8-22-16-14-14-9-11-3-4v-2h-2v-3h-2v-3h-2l-6-12-7-15-4-10-4-13-2-10-1-10v-33l2-16 4-16 4-12h2l1-5 8-17 4-5 4-7 11-14 17-17 13-10 11-7 15-8 11-4 7-3 20-5z" fill="#CC6AFE"/>
<path transform="translate(1280,445)" d="m0 0 2 4 2 13 2 20 1 3 1 12 6 11 6 1 2 47v16l-2 6-4 25-3 8-2 5-9 9-11 9-7 6-3 3-5 2v6l20 4h22l10-4h4v-2l13-3 1-10h1l1 3 2-5h7l20 5 13 5 4 4-1 4-9 4-14 4-23 4-26 3-38 1-40-1-35-3-20-3-15-4-6-3-3-3 1-6 16-8h5l2-3 4 5 5 2h24l12-2 38-2 5-2-1-5-1-7 4-8-1-6-6-8 1-5 6-11 2-16 1-59-2-13 7-11 12-36z" fill="#1D2532"/>
<path transform="translate(1313,71)" d="m0 0 5 1 8 4 18 3 10 5 5 10 5 15v10l-2 7-9 13-4 6-4 9-5 2 3 6v3l-6 5-8 4-3 1h-16l-7-4-2-5-1-9-9 3-7-1-3-4-38 1-1-47-6-8-4-3-3-1h-95l-8-1 3-3 29-6 26-3h46l26 3 21 4 8 2 1-4 7-2 3-4-2-5-1-3 5 1 3 1 1-5 7 3z" fill="#5A5E7D"/>
<path transform="translate(1117,552)" d="m0 0 2 2 1 3v246l-3 7-7 8-4 2h-57v-1h28l-2-4-5-3v-2l-3-1 1-5 2-2h5l1-20v-9l2-2-2-7 1-10-1-2v-8l-2-9 2-3h2l1-2h3l1-7 2-1 1-13v-10l-3-15v-8l2-2-2-14 2-2v-15l-1-2v-6l2-1-1-5v-7h2v-9l-1-4 2-6-1-4v-10l4-8 4-4 3-7v-5l2-3 2-8 7-1h5l3 1z" fill="#A152F6"/>
<path transform="translate(204,714)" d="m0 0h45l3 6 4 3-2 11-9 43-4 26-6 20-3 15-2 42-3 23v9l3 17 3 9h2l1 4h2l4 5 11 4-1 6-1 1-12 1v-2l-9-3-13-1-12-3 1-8v-11l-6-47-2-15v-20l3-22 5-21 2-11 1-4v-21l-4-38-1-17z" fill="#FED0C6"/>
<path transform="translate(976,806)" d="m0 0h5l3 14h-6l-2 2-2 10 1 12v8l-1 2-1 21 1 13-2 3-8 4-8 5h-3v2l-5 2h4l9-4 10-2 3 3-1 18v14l-2 3v25l-7 4v3l9 5 1 4-4 9-1 2 3 14-1 5-2 1-2-1v2h-2l-4-6-3-8-5-12-4-15-2-12-5-12-9-27-5-13-2 2-1-3-2 1h-6l-1-2 2-6 1-6h-1v-9l2-5-1-25-2-1v-11h2l1-10 2-3h2l-2-7 2-6 31-4z" fill="#FC6A93"/>
<path transform="translate(798,636)" d="m0 0 6 2 15 8 20 8 4 2-3 22-3 32-4 24-4 13-1 16-5 29-1 28-2 1h-104v-1l72-1 21-1 5-2 1-9 1-2h2v-3l-3-1v-15l-4-1-1 7 1 4h1v6l-4 7h-5l-1-3 1-5 2-3 2-4-1-9-3-3 2-4v-15l-3-3 3-1 1-4-3-6-6-2-8-7-3-3 1-4 11-5-1-3-8-2v-2l-7-1-9-3-6-4v-3l-7-2-2-6 1-2-2-1 1-3 46-1 1-5 2-4 5-4 1-2h-2l-2-3-21-2h-7l-1 1h5l1 1 10 1 4 3-8 6-7 1h-19l-7-3 4-8-1-3-5-1-1-7 3-1 1-6-1-4 5 1h3l1-2 10-1 8-5 2-2 5-2h3l2-6z" fill="#CD6AFE"/>
<path transform="translate(698,728)" d="m0 0h1v78l-112-1-77-3-65-3-49-5-6-3 3-3 17-3 43-4 33-2 72-3 85-1h50 4z" fill="#2C3346"/>
<path transform="translate(312,715)" d="m0 0h2l2 22v29l-1 7v11l-2 15-4 16-2 20-15 74 1 13 1 9-5 3h-7l-14-3 1-15 2-11v-50l5-25 6-23v-8l-3-11-2-16-7-17-7-18-3-13 3-1 24-1 16-3z" fill="#FECFC5"/>
<path transform="translate(927,903)" d="m0 0 2 1 11 30 6 18 3 7 2 14 6 18 4 8 6 23 3 8 1 7v25l-2 14-1 1-10-1-30-7-4-2 1-8v-15l-1-33-1-17-2-5v-7l4-9v-9l-2-13v-39z" fill="#1D2431"/>
<path transform="translate(1260,629)" d="m0 0h7l7 2-5 5-5 4-3 3-5 2v6l20 4h22l10-4h4v-2l13-3 1-10h1l1 3 2-5h7l20 5 13 5 4 4-1 4-9 4-14 4-23 4-26 3-38 1-40-1-35-3-20-3-15-4-6-3-3-3 1-6 16-8h5l2-3 4 5 5 2h24l12-2 38-2 5-2v-5z" fill="#2D3447"/>
<path transform="translate(931,509)" d="m0 0 1 4 3-1v2l5 2 14 12 5 4 1 6 2 1-2 1-2 15-5 13-6 15-5 4-6 2-16 1-11-1-3-10-5-12-3-3-10-1-1-1-1-11-5-5v-6h-51l2-4 5-6 1 3-3 4 2 1h47l2-10 2-6 3-1 3 1 23-9 9-2 5 2z" fill="#2B2C3F"/>
<path transform="translate(198,559)" d="m0 0 3 3 15 30 3 7 2 3-1 18-3 4v14l-3 9-7 19-5 13h-52l1-6 12-23 13-23 8-16 13-39z" fill="#55CDD9"/>
<path transform="translate(1184,84)" d="m0 0h46l26 3 21 4 8 1 3 1-4 8-4 7-2 7v11l3 10 6 9 3 3 5 2 3 2 1 4-8 4-7-1-3-4-38 1-1-47-6-8-4-3-3-1h-95l-8-1 3-3 29-6z" fill="#1D2531"/>
<path transform="translate(256,399)" d="m0 0h69v4l-7 12-11 18-8 15-9 16-16 15-7 8-8-1-3 1-4-1 2-9-1-11v-17l5-13 5-7h2v-10l-9-17z" fill="#42B4D8"/>
<path transform="translate(301,638)" d="m0 0h5l2 10 4 21 1 8 1 19v19l-8 4-15 2h-22l-4-14v-24l4-28 2-9h-2l-1-6h21z" fill="#6042FD"/>
<path transform="translate(92,821)" d="m0 0 1 3-1 7 7 11 7 9 4-2 9-13 2-4v-10h2l6 8 2-1 4 2v2h-4l2 5v5l-12 5-2 2 15 2 1 1v13l-5 37-2 4-6 2h-32l-4-2-2-3-5-36-1-15 6-2 11-1-6-4-7-2-1-1 1-9-3-1v-3l4 1z" fill="#323847"/>
<path transform="translate(177,550)" d="m0 0 19 4 2 2 1 10-4 16-8 22-4 12-12 22-13 23-7 15-5 9-3 11-5 8-4 3-8 1-8-2-3-4 1-9 6-9 3-5 8-7 9-19 8-21 14-29 5-11 3-13 3-19 1-9z" fill="#FED1C6"/>
<path transform="translate(703,259)" d="m0 0h30l19 3 24 7 19 9 8 6 5 2 2 3 5 3 4 3v2l5 2 15 15 10 13 6 11 5 9 6 11v3h2l4 14 2 5 3 12 2 16v29l-4 24-3 9-4 11-10 22h-2l-2 7-3 1-1 5-6 8-2 1-1 3h-3l-2 5-9 8h-2l1-4 13-14 12-17 5-9 7-14 3-10 3-9 3-13 1-9 1-2v-37l-2-7-4-19-7-21-6-12-3-4v-3h-2v-3h-2v-3h-2l-1-4h-2l-5-7v-2l-3-1-4-5v-2h-2v-2l-4-2-7-5-4-5-8-6-11-6-6-4-9-3-6-4-11-4-14-3-1-1-23-2h-18l-12 1-8 2-13 2-8 3-22 8-11 6h-2v2l-7 4h-2v2l-4 1v2l-4 2-10 10-5 4-6 8h-2l-2 5-5 7h-2v3h-2l-1 5-3 5-8 15-6 17-3 15-2 16h-2l1 29 5 25 3 9 4 13 10 19 10 15 12 14 6 6v2l4 2 15 11v2l4 1 6 4 14 7 16 6 16 5v1h-12l-12-4-12-5-15-8-22-16-14-14-9-11-3-4v-2h-2v-3h-2v-3h-2l-6-12-7-15-4-10-4-13-2-10-1-10v-33l2-16 4-16 4-12h2l1-5 8-17 4-5 4-7 11-14 17-17 13-10 11-7 15-8 11-4 7-3 20-5z" fill="#CFD7EB"/>
<path transform="translate(753,541)" d="m0 0 12 1 53 1 7-1v2h9l4-1 10 1-1 4-5 2-15 2-7 2v9l-7 10v8l7 10 2 7 7 4 19 6 1 2 3 2-8 1-3-1h-10l-13-6-9-3-15-6-7-6v-2h-2l-20-26-7-10-5-10z" fill="#ED73FF"/>
<path transform="translate(353,370)" d="m0 0h4l4 5v9l-6 7-7 4h-2l-2 7-8 16-18 37-10 25-15 24-7 10h-2l-4-15-2-14-5-2v-4l10-10 7-6 10-19 11-20 11-17 4-8h2l2-5 8-11 9-9z" fill="#FED0C6"/>
<path transform="translate(1240,357)" d="m0 0 20 1 8 2v5l3 3 1 12-2 16-3 1v9l6 18v10l-2 11v10l-4 10-1 9-1 5h2l2-2-2 9-6 9h-6v-3l-3-1-2-9-1-12-1-39v-16l-1-25v-15l2-7v-6l-1-3-8-1z" fill="#55CDD9"/>
<path transform="translate(1287,96)" d="m0 0 7 1 9 3 4 6v10l-1 6v10l15-1 4 5 8 16 8 6 3 6-7 6-8 4-3 1h-16l-7-4-2-5-1-9-2-1v-4l-4-2-5-2-7-8-4-9-1-5v-11l3-10z" fill="#EF839D"/>
<path transform="translate(271,857)" d="m0 0 1 3v45l-4 23-2 6-2 13-11 1h-11l-4-4v-2h-2l-1-4h-2l-5-13-1-14 8-7 11-12 11-14 10-15z" fill="#1F2532"/>
<path transform="translate(705,116)" d="m0 0h21l32 3 23 4 26 7 20 7 20 9 8 5-1 3-23-10-24-9-22-6-25-5-31-3h-29l-23 2-24 4-21 5-9 3h-3v2l-21 8-12 5h-6v2h-2v2l-8 4-9 5-12 6-2 3-5 2-7 6-3 1-3 3-7 5-5 5-3 1-2 4-11 9-8 9-5 5-6 8h-2l-1 4-12 16h-2l-1 5-3 1-1 5-2 3h-2v3h-2l-2 7-6 10-9 19-8 21-5 17-6 26-3 16-2 15-3 1v-12l3-20 6-26 3-9 8-23 3-9h2l3-10 8-15 5-9 7-11 12-17 13-16 14-15 12-12 11-9 15-12 5-3h2l1-3 6-3 11-7 4-3 7-3 8-5 11-4h2v-2l26-10 6-2h4l1-2 8-1 22-5 20-3z" fill="#D8E0F7"/>
<path transform="translate(1213,605)" d="m0 0h4l5 5 6 4 6 3 16 1 6 2-1 7 2 4-1 5-5 2-38 2-12 2h-24l-6-3-5-6 1-5 2-2 17-3 11-5 9-6z" fill="#F86D94"/>
<path transform="translate(1291,615)" d="m0 0 6 2 12 5 7 4 8 3 2 4v13l-9 3h-5v2l-14 5h-22l-16-3-4-2-1-6 2-2 6-1 1-3 11-9z" fill="#FC6C94"/>
<path transform="translate(967,525)" d="m0 0h1l1 20 7 14 3 4v11l-2 3 1 7 1 2v13l-8 1-11 4-5 6-4-1-7-7-6-7v-6l-2-1 8-3 3-4 10-26 2-15 3-1 5 1z" fill="#CC6AFD"/>
<path transform="translate(698,185)" d="m0 0h41l17 3 26 6 20 7 18 8v2l-5-1-35-12-21-5-15-1v-2l-31-1-28 2-31 5-11 4-18 6h-2v2l-6 1v2l-10 4h-2v2l-9 6-8 3-6 5-8 5-1 2-4 2-6 7-11 8-9 10-5 5-8 12h-2v2h-2l-1 5-4 2-2 5-3 6h-2l-2 7h-2l-2 6-4 8-4 10-10 28-3 17-3 16-2 5h-2v-11l3-18 7-25 4-9 5-11 4-10 7-12 5-9 12-16 8-10 11-12 11-11 11-9 13-10 7-5 9-5 19-10h4v-2l18-7 16-5 23-5z" fill="#7A9DE9"/>
<path transform="translate(92,821)" d="m0 0 1 3-1 7 7 11 7 9 4-2 9-13 2-4v-10h2l6 8 2-1 4 2v2h-4l2 5v5l-12 5-2 2 15 2 1 1v13l-1 2h-55l-1-15 6-2 11-1-6-4-7-2-1-1 1-9-3-1v-3l4 1z" fill="#242B39"/>
<path transform="translate(656,270)" d="m0 0h2l-1 3-17 8-7 4h-2v2l-7 4h-2v2l-4 1v2l-4 2-10 10-5 4-6 8h-2l-2 5-5 7h-2v3h-2l-1 5-3 5-8 15-6 17-3 15-2 16h-2l1 29 5 25 3 9 4 13 10 19 10 15 12 14 6 6v2l4 2 15 11v2l4 1 6 4 14 7 16 6 16 5v1h-12l-12-4-12-5-15-8-22-16-14-14-9-11-3-4v-2h-2v-3h-2v-3h-2l-6-12-7-15-4-10-4-13-2-10-1-10v-33l2-16 4-16 4-12h2l1-5 8-17 4-5 4-7 11-14 17-17 13-10 11-7 15-8z" fill="#DCE2F3"/>
<path transform="translate(762,1133)" d="m0 0h10l2 1-1 5-7 18-7 11-10 8-10 3h-7l-5 1-3-4-1-4v-15l5-10 8-7 9-4zm8 2-23 11-10 9 1 2 5-3 5-5 2 2 2 3-1-7 7-4 1 2 1-3 12-6zm-16 3m-4 1m15 4m-29 2m5 0v1h5v-1zm18 0 1 3zm1 4 1 3zm-24 2-3 2h4zm16 3 1 11h1l-1-11zm-9 1 1 2zm-7 2m8 0v5h1v-5zm-9 1-6 3v1h5l2 9 3 1-3-14zm10 4v8h1v-8z" fill="#56CFDA"/>
<path transform="translate(920,1138)" d="m0 0h6l3 7 3 19v5l-4 2-13 1-13-1-18-6-6-4-1-5 3-6 4-3 10-3v-3l2-1z" fill="#2B2C3F"/>
<path transform="translate(1207,1085)" d="m0 0 5 1-4 3-9 4-10 6-9 8 4-2 5-5 7-4 4-1h1l1-3 10-4 4-1-1 4-8 20-7 9-8 7-6 3h-13l-5 1-3-8v-13l3-8 6-7 8-5 6-2zm-6 2-2 2h3zm-5 2m-3 1m13 3m1 1 1 2zm-22 1m-4 1 4 1zm-2 1m29 1m-16 2 2 11 1 6h1v-7l-3-10zm10 0 1 4zm-29 3v2h8l-2-2zm11 3m19 0 1 4zm-18 1 1 8h1l-1-8zm-7 2m-1 1-7 3 1 2 5-1 2 9h3l-2-6-1-7zm10 5v6l2-1-1-5z" fill="#5BD8DA"/>
<path transform="translate(294,927)" d="m0 0 2 4 6 5 1 2 11 4 8 2 5 4 1 7-2 2-7 2h-11l-9-2h-28l-5-5v-13l1-11 1 3h7l7 2h7l4-2z" fill="#5B5F7F"/>
<path transform="translate(737,502)" d="m0 0 5 1 7 7 3 7 1 24 2 6-11 7-5 2-6-10-9-8-4-7v-9l4-6 6-7 5-5z" fill="#FDCEC4"/>
<path transform="translate(1019,1133)" d="m0 0h2l2 8 2 12v7l-6 2h-18l-10-2-16-6-4-4 1-7 4-5 7-2h5l1 1 16 1 10-2z" fill="#2C2D41"/>
<path transform="translate(204,948)" d="m0 0 1 2 9 1 3 1 13 1 5 1 4 3v2l12-2 2-5 13 3 3 6-1 5-6 2-15 2h-15l-15 5h-8l-5-3-2-3-1-13z" fill="#585E7C"/>
<path transform="translate(198,559)" d="m0 0 3 3 15 30 3 7 2 3v7l-5 1v3l-5 5-6-1v-3l-9-1-6-2-1-7 2-6v-8l6-18z" fill="#5BD9DA"/>
<path transform="translate(1300,342)" d="m0 0 5 1 2 5v4l-4 2v7l2 4h12l-1 8-8 4-4 1h-11l-8-4-6-7-1-7h-11l1-5 12-6 12-4 7-2z" fill="#F1849E"/>
<path transform="translate(184,624)" d="m0 0h2l1 4-4 11v11h2l-4 17 2 5 7 3v4h-28l-6-1-2-3 1-6 7-11 2-4h2l2-4 7-12z" fill="#5CDADA"/>
<path transform="translate(883,712)" d="m0 0 5 2 14 7 14 4 21 3 27 1h9l-2 4-10 6-11 4h-13l-10-2-12-4-12-7-13-10-7-6z" fill="#E7E5EA"/>
<path transform="translate(705,116)" d="m0 0h21l32 3 23 4 26 7 20 7 20 9 8 5-1 3-23-10-24-9-22-6-25-5-31-3h-29l-23 2-24 4-14 3h-9l1-2 24-6 25-4z" fill="#FCFCFD"/>
<path transform="translate(507,530)" d="m0 0 3 1 6 12 11 16 11 14 11 12 10 10 14 11 15 11 15 9 9 5 13 5 8 4 11 4 30 7 25 4v3h-11v-2l-18-1-5-1v-2l-9-1-12-2-11-5-10-4-12-5-19-10-11-8-13-8-5-5-12-11-9-9v-2l-4-2-5-6-9-11-4-6v-2h-2l-9-15-2-5z" fill="#D9E1F3"/>
<path transform="translate(1252,626)" d="m0 0 3 1 2 4-1 5-5 2-38 2-12 2h-24l-6-3-5-6 1-5 4-1 7 4h38l29-2 7-1z" fill="#D6D8E6"/>
<path transform="translate(599,216)" d="m0 0 1 3-15 9-3 3-8 5-1 2-4 2-6 7-11 8-9 10-5 5-8 12h-2v2h-2l-1 5-4 2-2 5-3 6h-2l-2 7h-2l-2 6-4 8-4 10-10 28-3 17-3 16-2 5h-2v-11l3-18 7-25 4-9 5-11 4-10 7-12 5-9 12-16 8-10 11-12 11-11 11-9 13-10 7-5z" fill="#D5DFF6"/>
<path transform="translate(507,642)" d="m0 0 4 2 14 12 14 10 2 1v2l5 2 18 12 18 9 9 5 8 3 15 6 18 6 28 6 29 4v1l-8 1 18 2-1 2-10-1-33-5-19-5-15-4-4-2-7-2-13-5-15-7-25-13-9-6-10-7-16-12-14-12z" fill="#DCE2F6"/>
<path transform="translate(968,524)" d="m0 0 4 1 8 4 5 2v2l5 2 4 5v9l-3 14-12 2-8-13-3-7z" fill="#FCCDC4"/>
<path transform="translate(1011,355)" d="m0 0 4 4 4 25 2 17v43l-5 37-6 24-10 30-3 5h-2l1-7 1-5h2l1-6 4-12 5-22 2-6 3-23 2-11v-47l-2-21-3-16z" fill="#E5EAF5"/>
<path transform="translate(1325,636)" d="m0 0h1v10l-9 3h-5v2l-14 5h-22l-16-3-4-2-1-6 2-2 9 1 10 1h19l13-3z" fill="#DFDEE7"/>
<path transform="translate(857,916)" d="m0 0 2 1 2 8 3 16 2 8v13l-2 11-1 9 9 30 3 16v10l-2 2-2-4-2-8-3-9-3-12-3-11-2-10-1-8v-14l1-3h2l1-10-2-1-1-5-1-25z" fill="#1B2831"/>
<path transform="translate(698,728)" d="m0 0h1v78l-29-1-5-1 4-3 7 2-4-4 1-4 6-1 2-14 4-1h-4-6v-3h17l5 5z" fill="#313846"/>
<path transform="translate(832,734)" d="m0 0 1 2h9l15 3 12 4 3 3 1 13-3 1-22-7-5-1h-11v-11l-2 1z" fill="#E2E4E9"/>
<path transform="translate(78,853)" d="m0 0 1 4 55-1 1 3v7l-1 2h-55z" fill="#856EFD"/>
<path transform="translate(703,259)" d="m0 0h30l19 3 24 7 19 9 8 6 5 2-3 2h-3l-13-8-9-3-6-4-11-4-14-3-1-1-23-2h-18l-12 1-8 2-13 2-8 3-11 4-5 1 4-3 3-1 1-2-4 1 1-2 11-4 20-5z" fill="#BEC6E5"/>
<path transform="translate(763,525)" d="m0 0 4 1 6 3 10 1h25l5 3v2l4-1v4l7 1v1h-71l2-1v-8l2-3 1-2 3 1v8h3l4 1-3-4-4-2 3-2z" fill="#1D2933"/>
<path transform="translate(940,355)" d="m0 0 3 1 3 8 3 15 2 13 1 10v45l-2 15-5 21-7 21-4 9h-2l1-7 7-21 3-14 5-29v-40l-2-15-1-1-2-15-3-12z" fill="#C8CFEB"/>
<path transform="translate(1214,1087)" d="m0 0h2l-1 4-8 20-7 9-7 6h-5l-1-11-3-10 5-5 7-4 4-1h1l1-3 10-4zm-8 6m1 1 1 2zm1 4m-16 2 2 11 1 6h1v-7l-3-10zm10 0 1 4zm1 6 1 4z" fill="#44B6D8"/>
<path transform="translate(1112,71)" d="m0 0 4 1 4 7 4 11v4l3 1h-28l-5-1 1-9 6-8 7-5z" fill="#F1859F"/>
<path transform="translate(983,1136)" d="m0 0h5l5 6 4 1 1 4-3 3-1 2 10 3 4 2-2 1-1 3h14v1h-18l-10-2-16-6-4-4 1-7 4-5z" fill="#323747"/>
<path transform="translate(458,260)" d="m0 0 1 2-2 5h-2l-2 7-6 10-9 19-8 21-5 17-6 26-3 16-2 15-3 1v-12l3-20 6-26 3-9 8-23 3-9h2l3-10 8-15 5-9 5-5z" fill="#E1E7F6"/>
<path transform="translate(885,553)" d="m0 0 2 2 1 7 10 1 5 6 5 13 1 7h27v4h-12l-8 2-9 4-4-1-3-12-12-16-3-8z" fill="#FAC9C3"/>
<path transform="translate(773,1134)" d="m0 0 1 3-8 20-7 11-7 6-7 1 2-5-1-14h2l1-4 2 1-1-6 6-4 16-8zm-8 9m-6 2 1 3zm1 4 1 3zm-8 5 1 11h1l-1-11z" fill="#44B6D8"/>
<path transform="translate(876,412)" d="m0 0h2v31l-3 18-3 9-4 11-10 22h-2l-2 7-3 1-1 5-6 8-2 1-1 3h-3l-2 5-9 8h-2l1-4 13-14 12-17 5-9 7-14 3-10 3-9 3-13 1-9 2-10z" fill="#E3E4F3"/>
<path transform="translate(927,1113)" d="m0 0 5 1 1 2-4 11-2 13-1-2-14 2-17 1 1-4 4-4 11-4 4-3 2-4h2v-6l3-2z" fill="#F76B93"/>
<path transform="translate(928,1145)" d="m0 0h1l3 19v5l-4 2-13 1-13-1-18-6-6-4-1-5 3-6 3-2 1 4h2v2l3 1v2l5 2 3 1v2l5 1 7 2 1 3 10 1 7-8 1-6z" fill="#323748"/>
<path transform="translate(656,270)" d="m0 0h2l-1 3-17 8-7 4h-2v2l-7 4h-2v2l-4 1v2l-4 2-10 10-5 4-6 8h-2l-2 5-5 7h-2v3h-2l-1 5-3 5-4 8-3-2 3-9 5-7 4-7 11-14 17-17 13-10 11-7 15-8z" fill="#DEE5F7"/>
<path transform="translate(625,775)" d="m0 0h68 4 1v6l-2 1-2-5h-19l-4 5h-7l-2 1-4-4v-2l-8 2-8-1h-32l-5 1h-13l-8 1h-32l-4-2v-1l10-1z" fill="#2D3341"/>
<path transform="translate(691,816)" d="m0 0h7l10 6 14 1 11 1 28 1 14 1 17 1v1l-6 1v1h-11l-8 1h-10l-1-1-23-1-3-1h-21l-7-1-1-3-4-2-7-2z" fill="#1B2730"/>
<path transform="translate(1093,529)" d="m0 0 13 4 5 2 6 5h-3l-9-4-21-1-8 1-4-1-1 2-9 1h-20l-6-3 1-2 14-2v-1z" fill="#1B2730"/>
<path transform="translate(1354,340)" d="m0 0 2 1-7 9-4 1-1 5h-4l2 6v22l-4 8-2 1v-2h-4l-1-2-3-23v-4l10-2 2-7 9-6z" fill="#31384C"/>
<path transform="translate(762,1133)" d="m0 0h10v2l-25 12-9 8-5 5 1-6-6-1-2-1 2-5 8-7 9-4zm-8 5m-4 1m-14 6m5 0v1h5v-1zm-5 6-3 2h4z" fill="#56CFD9"/>
<path transform="translate(1278,361)" d="m0 0 6 1 12 4h8l13-1-1 8-8 4-4 1h-11l-8-4-6-7z" fill="#5C5E7D"/>
<path transform="translate(263,429)" d="m0 0 3 1 2 5v13l-4 9-6 8-5 1v-17l5-13z" fill="#FDCDC4"/>
<path transform="translate(1340,274)" d="m0 0 2 2-10 6-15 5-25 3h-6l4-4 14-6 17-4z" fill="#E7E5EA"/>
<path transform="translate(629,127)" d="m0 0 2 2 4 2-12 4h-3v2l-21 8-12 5h-6v2h-2v2l-8 4-9 5-5 2 5-6 3-4 7-3 8-5 11-4h2v-2l26-10 6-2h4z" fill="#C7D3E5"/>
<path transform="translate(1260,509)" d="m0 0 2 1-1 59-1 12h-1l-2-13-1-9 1-8v-16l-6-10 3-7h-2l-2-3v-4l10 2z" fill="#53CAD9"/>
<path transform="translate(982,687)" d="m0 0 2 3 3-3h7l5 1-1 16-9 4h-7l-1 4v-18z" fill="#CE6BFF"/>
<path transform="translate(1207,1085)" d="m0 0 5 1-4 3-9 4-10 6-8 6-8-2-1 2-2-1v-5l7-6 8-4 13-3zm-6 2-2 2h3zm-5 2m-3 1m-8 5m-4 1 4 1z" fill="#56CFD9"/>
<path transform="translate(924,1083)" d="m0 0 3 1v6l1 4v3 5l-5 2-1 1h-6l-5-3v-2l-5-2 2-5 5-5 8-2 1-2 1 2z" fill="#FD6B94"/>
<path transform="translate(998,536)" d="m0 0 1 4h106l5 2v1l-15 3v-2l-96-2-2-4z" fill="#894DF8"/>
<path transform="translate(614,632)" d="m0 0 5 2 13 5 12 5 30 7 25 4v3h-11v-2l-18-1-5-1v-2l-9-1-12-2-11-5-10-4-12-5z" fill="#F2F1F4"/>
<path transform="translate(204,930)" d="m0 0 3 1v11l-3 8-25 2 6-8 14-10z" fill="#242937"/>
<path transform="translate(92,821)" d="m0 0 1 3-1 7 7 11 6 9h-9l-5-4-9-3-1-1 1-9-3-1v-3l4 1z" fill="#56CEDA"/>
<path transform="translate(121,822)" d="m0 0h2l6 8 2-1 4 2v2h-4l2 5v5l-12 5-3 3h-9l7-11 5-8z" fill="#4EB3D5"/>
<path transform="translate(198,559)" d="m0 0 3 3 15 30-1 3v-2l-4-1-5-5-5-3-4 5h-2v2h-2l-1-4 5-15z" fill="#56CEDA"/>
<path transform="translate(263,600)" d="m0 0 6 1-1 5-10 6h-2v3l12 3-2 2-18-1-10-1-1-3 14-4 8-4 1-2-9 2h-13l3-2z" fill="#E7E5EA"/>
<path transform="translate(824,210)" d="m0 0h11l20 2v19l-8-6-9-6-11-6z" fill="#222937"/>
<path transform="translate(804,286)" d="m0 0 5 2 6 4 4 3v2l5 2 15 15 10 13 6 11 5 9 2 4-3 1-4-8-3-4v-3h-2v-3h-2v-3h-2l-1-4h-2l-5-7v-2l-3-1-4-5v-2h-2v-2l-4-2-7-5-4-5-9-7z" fill="#DFE5F6"/>
<path transform="translate(1243,110)" d="m0 0h1v42h12l20 1 1-3h12l1-2 5 2 3 2 1 4-8 4-7-1-3-4-38 1z" fill="#2B2D40"/>
<path transform="translate(673,189)" d="m0 0h8l-4 2-10 1v2l-16 3-8 3-18 6h-2v2l-6 1v2l-10 4h-2v2l-9 6-2-1 4-3h2l-1-2h-3l5-3 15-8h4v-2l18-7 16-5z" fill="#C6CFEC"/>
<path transform="translate(731,186)" d="m0 0h11l24 4 22 6 21 8 11 5v2l-5-1-35-12-38-9-10-1z" fill="#F9F8FA"/>
<path transform="translate(725,1152)" d="m0 0 9 2-1 6-3 1 4 1 2 9-1 3v4l-5 2-4-1-3-7v-15z" fill="#5BD8DA"/>
<path transform="translate(425,331)" d="m0 0h1l-1 10-6 26-3 16-2 15-3 1v-12l3-20 6-26 3-9z" fill="#CED5EF"/>
<path transform="translate(1011,355)" d="m0 0 4 4 4 25 2 17v43h-1l-1-39-1 24h-1l-1-28-2-21-3-16z" fill="#C0CAEE"/>
<path transform="translate(687,593)" d="m0 0h3l1 4v10l1 21v11h-5l1-4-4-1v-8h2l1-14-3 1-1-2 2-6 1-2v-9z" fill="#1B2831"/>
<path transform="translate(204,948)" d="m0 0 1 2 9 1 13 2 1 5-15 2-4 2-4 6h-2l-2-6 1-9z" fill="#866DFC"/>
<path transform="translate(799,204)" d="m0 0 10 3 11 4v-2h5l3 4 6 3 13 8 9 8v3l-5-2-5-3v-2h-3v-2l-9-3-10-6v-2l-8-2-14-6-6-1z" fill="#B3C1E1"/>
<path transform="translate(235,940)" d="m0 0 1 2h2l4 5 11 4-1 6-1 1-12 1v-2l-12-4 6-9z" fill="#8368FB"/>
<path transform="translate(494,341)" d="m0 0h1l-1 9-4 11-3 17-3 16-2 5h-2v-11l3-18 7-25z" fill="#D3D8EC"/>
<path transform="translate(632,131)" d="m0 0 5 1 2 2-9 2-30 11-28 12-13 8-5 3h-5l3-3 10-5 9-5 6-3h2v-2h2v-2l9-2 24-10 6-1v-2z" fill="#2C3143"/>
<path transform="translate(940,355)" d="m0 0 3 1 3 8 3 15 2 13v42l-2 1-1-33-2-15-1-1-2-15-3-12z" fill="#E5E9F4"/>
<path transform="translate(1256,607)" d="m0 0 3 4-1 7-1 2-23-2-5-2-1-5 4 1h11l-3-3h16z" fill="#47B3D9"/>
<path transform="translate(1434,596)" d="m0 0 13 3h13l7-1v-2h6l1 4-4 3-6 2h-17l-10-3-4-3z" fill="#2B2E40"/>
<path transform="translate(1345,229)" d="m0 0h2l1 2 3 24v5l-4-1-6-6-1-3v-9z" fill="#E7E5EA"/>
<path transform="translate(955,1017)" d="m0 0 1 2h2l3 11 4 8 2 10-1 10-2-4-2 3h-2l-2-4-1-25-2-5z" fill="#1B2730"/>
<path transform="translate(1351,277)" d="m0 0h1v10l3 4v3h-2l-1 5-10 12-3 3h-1l1-9 5-10 3-7z" fill="#2E364D"/>
<path transform="translate(917,961)" d="m0 0h2v2l7 1v9l-2 3v-3l-8 4-5 2-10 7-1-2-2-1 7-6 7-3 4-12z" fill="#F66A92"/>
<path transform="translate(523,286)" d="m0 0 1 2-1 3h-2l-2 5-3 6h-2l-2 7h-2l-2 6-4 8-8 20-3-1 1-6 5-11 4-10 7-12 5-9 4-5z" fill="#E1E3F4"/>
<path transform="translate(1306,345)" d="m0 0 7 6 4 5-1 7-5 3h-6l-3-5v-7l5-2-2-6z" fill="#E6DBE2"/>
<path transform="translate(103,399)" d="m0 0h106l-2 4-12 5-3-1-2-6-87-1z" fill="#42B3D8"/>
<path transform="translate(636,713)" d="m0 0 18 4 26 4 9 1v1l-8 1 18 2-1 2-10-1-33-5-15-4-1-3-3-1z" fill="#C8D1F2"/>
<path transform="translate(570,350)" d="m0 0h1v5l-5 10-4 12-3 15-2 16h-1l-1-9-2 2 1-11 4-16 4-12h2l1-5 3-6z" fill="#D7DCEC"/>
<path transform="translate(1440,566)" d="m0 0h2l-1 8 6 8 2 1 2-4 4-4 3-5 3 2v7l-4 3-8 4h-5l-4-5-6-4 1-5z" fill="#D2AFDD"/>
<path transform="translate(844,814)" d="m0 0h18l1 5-1 1-16 1h-24v-1l9-2 6-3z" fill="#CC6BF4"/>
<path transform="translate(535,777)" d="m0 0h12l-3 3h-22l-1 1-23 2-1-2-18 1-8 1v-2h-6v-1z" fill="#2D3341"/>
<path transform="translate(643,199)" d="m0 0 4 1-17 6 2 2-20 8-17 9-9 6-2 2h-5l3-3h2l1-3 7-4 7-3 4-3h2v-2l8-4h4v-2l6-1v-2l16-6z" fill="#565985"/>
<path transform="translate(1182,1106)" d="m0 0 3 1 2 8v6h2v4l3 2-7 3-6-3-2-5 3 1-2-6v-7z" fill="#56CFDA"/>
<path transform="translate(1291,615)" d="m0 0 3 1-6 7-10 10-6 2-1 2h2l1 5-1 2 22 1v1h-19l-13-2-2-2h2l1-3 11-9z" fill="#F0829C"/>
<path transform="translate(1142,90)" d="m0 0h5l2 4 80 1v1l-95 1-8-1 3-3z" fill="#2E3246"/>
<path transform="translate(762,1133)" d="m0 0h10v2l-21 10-5-1-3-1v-2h9v-2l-13 1 3-3 13-3z" fill="#48BBD8"/>
<path transform="translate(713,188)" d="m0 0h11l20 2v1h-48l-16 2-2 2-7 2-16 1-8 1 4-3 21-4 23-3z" fill="#645D7C"/>
<path transform="translate(1257,643)" d="m0 0 9 1 8 3v2l7 2-1 3-22-2-3-3 1-5z" fill="#F5F5FB"/>
<path transform="translate(1179,379)" d="m0 0 2 1-1 6-3 3h-3v2l-8 4-2 3h-8l-3-4 12-5 5-4 2-2v2l3-2 1-3z" fill="#1C2832"/>
<path transform="translate(696,190)" d="m0 0h37l27 3 8 3v1l-14-1-9-2-22-2h-16l-21 2-7 1v-3z" fill="#2C3143"/>
<path transform="translate(681,578)" d="m0 0 8 1 10 2 1 3v70h-1v-69l-18-2-9-3v-1z" fill="#CC6AFE"/>
<path transform="translate(706,261)" d="m0 0h18v1l-29 2-8 2-13 2-8 3-11 4-5 1 4-3 3-1 1-2-4 1 1-2 11-4 11-2v2l16-3z" fill="#98A6CE"/>
<path transform="translate(637,561)" d="m0 0 12 6 16 6 16 5v1h-12l-12-4-12-5-10-5v-2h2z" fill="#BFCBE6"/>
<path transform="translate(703,259)" d="m0 0h30l6 2v1h-33l-13 1-9 2h-7v-3l9-2z" fill="#DEE0EA"/>
<path transform="translate(853,506)" d="m0 0 1 4-3 1-1 5-6 8-2 1-1 3h-3l-2 5-9 8h-2l1-4 13-14 11-16z" fill="#C1CCEC"/>
<path transform="translate(650,775)" d="m0 0h43 4 1v6l-2 1-2-5h-19l-4 5h-7l-2 1-4-4v-2h-9z" fill="#2D3241"/>
<path transform="translate(599,216)" d="m0 0 1 3-15 9-3 3-8 5-1 2-4 2-6 7-3 1 1-4 3-4 5-5 12-9 7-5z" fill="#DFE4F5"/>
<path transform="translate(996,923)" d="m0 0 2 1 1 9 3 4v24l-5-1v-15l-3-12h2l-2-5 1-4z" fill="#1C2831"/>
<path transform="translate(1018,404)" d="m0 0 2 1v47l-3 9-2 1 1-14z" fill="#F1F4F9"/>
<path transform="translate(822,821)" d="m0 0h13l1 4-3 2-9 2-4 1h-12l-3-1-12-1v-1l19-2 7-1 7 1 4-2-8-1z" fill="#1B2831"/>
<path transform="translate(945,471)" d="m0 0h1v8l-5 16-6 17-3 1 1-7 7-21 2-10h2z" fill="#E0E7F3"/>
<path transform="translate(614,632)" d="m0 0 5 2 13 5 12 5 8 2-3 1v2l2 1-7-1-11-5-10-4-12-5z" fill="#C5C8E4"/>
<path transform="translate(1318,318)" d="m0 0h4l-2 4-4 4-17 3h-6l-2-1v-2l21-6z" fill="#E7E5EA"/>
<path transform="translate(1244,206)" d="m0 0 2 2 1 5v30l-1 11-2 5h-1z" fill="#3B3B54"/>
<path transform="translate(629,127)" d="m0 0 2 2 4 2-12 4h-3v2l-21 8-12 5-2-1 9-5 7-3 13-5h2v-2l-5 1 2-2 12-4h4z" fill="#ACC0E4"/>
<path transform="translate(1049,849)" d="m0 0h2l-2 5-8 8-6 3-9 1-6-2 14-7 2 1-2 2 3-1 1-2h2v-2l6-4h3z" fill="#1C2832"/>
<path transform="translate(599,701)" d="m0 0 11 3 8 3 18 6 3 2v2l-11-2-7-2-4-2-7-2-13-5 2-1z" fill="#DAE0EF"/>
<path transform="translate(923,994)" d="m0 0h1l1 17 1 33v15h-1v-13h-6l-1-5 4 1-2-2-2-1v-3l3 1 1-3z" fill="#D4668C"/>
<path transform="translate(630,643)" d="m0 0 6 1 8 4 21 4v2l16 1 7 1v1l-17 1-16-4-18-5-2-3-5-2z" fill="#404868"/>
<path transform="translate(996,971)" d="m0 0 5 1 7 14 3 13-4 2-8-22z" fill="#1C2832"/>
<path transform="translate(91,836)" d="m0 0 5 2 9 12v1h-9l-5-4-4-4 2-5h2z" fill="#43B4D8"/>
<path transform="translate(687,738)" d="m0 0 1 3 3 1 1 5 1 23 2 5-5-1-2-2v-12l1-7-5-1 1-4h2z" fill="#1B2831"/>
<path transform="translate(800,599)" d="m0 0 18 6v1l-14 3-13 1 1-3 5-5z" fill="#E7E5EA"/>
<path transform="translate(478,232)" d="m0 0 1 4-8 10-3 4h-2l-1 5-3 1-1 5-3 3v-3l-3 2 2-5 14-20z" fill="#CFD8ED"/>
<path transform="translate(294,927)" d="m0 0h1v6l-3 3-16-2-1 2-3 1-3 12-3-1v-9l1-11 1 3h7l7 2h7l4-2z" fill="#856DF8"/>
<path transform="translate(1119,812)" d="m0 0 3 3-4 6-5 4-7 1-8-1 1-2 4 1 3-5 6-4 4-1h3z" fill="#1C2831"/>
<path transform="translate(581,515)" d="m0 0 4 4 6 8v2l3 1 7 8 7 6 5 5 8 6-3 1-13-10-6-5v-2l-4-2-2-3v-3l-4-1-3-4v-2h-2l-3-5z" fill="#3F4056"/>
<path transform="translate(689,677)" d="m0 0 2 1v13l1 7v12l-2-2-4-1v-8l-2-1 1-3h3l-2-5z" fill="#1B2831"/>
<path transform="translate(1018,456)" d="m0 0h1l-1 12-3 17-2 8-2-3-2 1 2-9 3-23 2 2z" fill="#C9CEEC"/>
<path transform="translate(928,1145)" d="m0 0h1l3 19v5l-4 2-13 1h-6l2-1v-2h9l7-8 1-6z" fill="#3B3E58"/>
<path transform="translate(555,398)" d="m0 0h1l-1 42-3-1v-33l2-7z" fill="#E7EAF3"/>
<path transform="translate(1168,627)" d="m0 0 5 1 2 2 1 4 1-1h6l-2 6h-10l-5-6 1-5z" fill="#F3F3F7"/>
<path transform="translate(968,569)" d="m0 0 3 3 5-3 2 1v6l-1 1-1 8-7-2-2-7z" fill="#B05CFE"/>
<path transform="translate(81,855)" d="m0 0h54l-1 4-1-2-48 1-6-1z" fill="#705D7C"/>
<path transform="translate(707,529)" d="m0 0 4 1 2 8h10l1-2 2 4-12 1-5 1-3-2-6-1 2-5 4-2z" fill="#202A35"/>
<path transform="translate(520,191)" d="m0 0 2 1-30 30-3 2-3 5-4 5-2-1 1-3 4-4 4-5 5-5 7-8 9-8 8-7z" fill="#3E4D60"/>
<path transform="translate(1254,604)" d="m0 0 2 2v3l-2 1h-13l3 3h-7l-4-2v-2l-4-2v-1h14l4-1h2l4 1z" fill="#55CDD9"/>
<path transform="translate(656,270)" d="m0 0h2l-1 3-17 8-7 4h-2v2l-7 3 2-4 4-4 7-4 11-6z" fill="#E3EAF4"/>
<path transform="translate(1243,110)" d="m0 0h1v42h12l16 1h8v1l-7 1-30 1z" fill="#33374F"/>
<path transform="translate(991,560)" d="m0 0h1l3 9 2 2h-11l-7 3v-9l5-2h7z" fill="#E7E5EA"/>
<path transform="translate(916,1046)" d="m0 0h4v2l3-1 1 5v9l-2-1v-2h-2v2h-3l-1 2-1-1v-11z" fill="#FE6B94"/>
<path transform="translate(785,202)" d="m0 0 7 1 4 1v2h6l16 7 6 2v2l6 2 4 4-4-1-17-8-22-8v-2h-6z" fill="#31364C"/>
<path transform="translate(754,547)" d="m0 0 4 4 1 3-18 6-2-1v-3z" fill="#E7E5EA"/>
<path transform="translate(707,262)" d="m0 0h18l23 2 5 2v2l-12-1-6-2h-42l2-2z" fill="#584A63"/>
<path transform="translate(1e3 531)" d="m0 0 1 3 9-3h3l7 1v2h-2l-2 4h-17z" fill="#1C2933"/>
<path transform="translate(673,189)" d="m0 0h8l-4 2-10 1v2l-16 3-8 3h-2l1-4 12-4z" fill="#C5CAE9"/>
<path transform="translate(1207,1085)" d="m0 0 5 1-4 3-9 4-5 3-4-1 4-5h-9l3-2zm-6 2-2 2h3z" fill="#42B4D8"/>
<path transform="translate(561,158)" d="m0 0 2 1-5 5-8 5-2 3-5 2-7 6-1-3 1-3 5-3h2l1-3 6-3z" fill="#D6DAEE"/>
<path transform="translate(760,268)" d="m0 0 5 1 11 4 8 5 7 2 9 6-4 1-19-10-17-6z" fill="#454769"/>
<path transform="translate(241,947)" d="m0 0 12 4-1 4-2 2-11-1-2-1 2-5z" fill="#F3B6B7"/>
<path transform="translate(867,477)" d="m0 0 1 4-10 22h-2l-1 5h-3l-1-2 5-9 8-16z" fill="#E5E6F3"/>
<path transform="translate(987,722)" d="m0 0 5 4 2 9 1 5h-3-3l-2-3-2-5z" fill="#CE6BFE"/>
<path transform="translate(976,1138)" d="m0 0h3l-1 5h-2v2l-2 2 6 3 3 4 1 3-9-3-4-4 1-7z" fill="#36354E"/>
<path transform="translate(1300,342)" d="m0 0 5 1 2 5v4l-4 2-2 3-3-6-1-5z" fill="#64527D"/>
<path transform="translate(416,367)" d="m0 0h1v9l-3 22-3 1v-12l1-7 2-7z" fill="#EDEEF8"/>
<path transform="translate(856,665)" d="m0 0 5 5 7 9 9 11 9 10h-3l-13-13-12-17z" fill="#E7E5EA"/>
<path transform="translate(434,306)" d="m0 0h1l-1 7-7 20-3-1 2-9 6-16z" fill="#E8F2F5"/>
<path transform="translate(668,720)" d="m0 0 21 2v1l-8 1 18 2-1 2-10-1-27-4v-1l7-1z" fill="#97ACE8"/>
<path transform="translate(314,698)" d="m0 0h1l1 13 2-1 2-4h2l1-2 1 1v8l-1 5-3-1-1-3-4-1v12h-1z" fill="#262E3B"/>
<path transform="translate(1291,615)" d="m0 0 3 1-6 7-10 10-7 3h-3l12-11 8-7z" fill="#E07897"/>
<path transform="translate(632,563)" d="m0 0 5 2 15 7 17 6-3 1-7-2-7-1-15-8-5-3z" fill="#3D3F55"/>
<path transform="translate(837,530)" d="m0 0 1 3-3 4 2 1 45 1v7h-1v-6h-51l2-4z" fill="#3F455D"/>
<path transform="translate(860,742)" d="m0 0 8 2 3 3v11l-6-1-2-2 4-2 1-4-4-1-4-4z" fill="#56CEDA"/>
<path transform="translate(1434,596)" d="m0 0 8 2v2l6 1h9l1 3h-16l-8-4z" fill="#2C3244"/>
<path transform="translate(1458,570)" d="m0 0 3 2v7l-4 3-6 2v-2l-2-1 6-6z" fill="#D96AB4"/>
<path transform="translate(655,197)" d="m0 0h10l-4 2-9 2-18 6h-5l1-2 21-7z" fill="#2C3244"/>
<path transform="translate(667,193)" d="m0 0h13l-2 2-7 2-16 1-8 1 4-3z" fill="#313548"/>
<path transform="translate(875,400)" d="m0 0 2 1 2 7v29h-1v-25h-2v20h-1z" fill="#A6A3E9"/>
<path transform="translate(581,150)" d="m0 0 4 1-6 5-12 6-9 6-4 2h-5l3-3 10-5 9-5 6-3h2v-2h2z" fill="#3D4057"/>
<path transform="translate(831,619)" d="m0 0 2 1 3 11 6 11 5 6-1 2-7-7-6-10-2-7z" fill="#E7E5EA"/>
<path transform="translate(1155,640)" d="m0 0 2 1-4 2v2h-2l-1 5 1 5-4-1-3-3 1-6z" fill="#2D3241"/>
<path transform="translate(1188,357)" d="m0 0 2 1 4 4-9-2v8h-2l2 5-3 4-2-9 2-9z" fill="#1B2730"/>
<path transform="translate(503,320)" d="m0 0 1 3-8 20-3-1 1-6 7-14z" fill="#E4ECF6"/>
<path transform="translate(246,591)" d="m0 0h2l-2 5-4 3-7 2h-7l3-3 12-5z" fill="#E7E5EA"/>
<path transform="translate(864,533)" d="m0 0 9 1 2 1v3l-9 1-1-1h-11l4-3z" fill="#1B2730"/>
<path transform="translate(842,620)" d="m0 0 4 4 9 16 6 8v2l-3-1-10-14-6-13z" fill="#E7E5EA"/>
<path transform="translate(921,602)" d="m0 0h17l1 3h-27v-2z" fill="#E7E5EA"/>
<path transform="translate(1214,1087)" d="m0 0h2l-1 4-4 10-3-2-1-5-2-2 5-3z" fill="#48BBD8"/>
<path transform="translate(264,944)" d="m0 0h1v6l-8-1v2l5 1 2 2-9-1-10-4v-1l8-1h11z" fill="#2B3043"/>
<path transform="translate(706,261)" d="m0 0h18v1l-29 2-8 2-12 1v-2l-4-1 6-1v2l16-3z" fill="#779FDC"/>
<path transform="translate(602,630)" d="m0 0 9 4 12 5 4 2-3 1-9-2-12-6z" fill="#444665"/>
<path transform="translate(458,260)" d="m0 0 1 2-2 5h-2l-2 7-4 4-4 2 2-5 5-9 5-5z" fill="#CCDAEE"/>
<path transform="translate(857,822)" d="m0 0 5 1-1 10-5 5-1-3v-8z" fill="#1B2831"/>
<path transform="translate(946,452)" d="m0 0h1v8h2l1-4-1 9-2 10-2-3-2 3 2-16z" fill="#BCC1E2"/>
<path transform="translate(1352,289)" d="m0 0 3 2v3h-2l-1 5-5 5-2-4 2-6z" fill="#323548"/>
<path transform="translate(84,851)" d="m0 0h44v1l-11 1-3 1h-11v-1l-19-1z" fill="#4F4A64"/>
<path transform="translate(86,828)" d="m0 0 1 2v6l-1 5-1 3-4-1 1-9-3-1v-3l4 1z" fill="#7ED3D4"/>
<path transform="translate(614,136)" d="m0 0h6l-2 2-17 6-14 6-2-1 9-5 7-3z" fill="#6F69A0"/>
<path transform="translate(1252,581)" d="m0 0 2 1-1 9-4 2-1 3-3-4 1-3h2l-1-4h3v-2h2z" fill="#56CEDA"/>
<path transform="translate(960,539)" d="m0 0 7 1v1h-7v11l2 5-3 5h-2l-2 4-1-2 3-9 2-15z" fill="#9A54FC"/>
<path transform="translate(952,560)" d="m0 0h3l-1 6-5 10-3-1v-4h2l1-6z" fill="#1F2634"/>
<path transform="translate(872,460)" d="m0 0h1v7l-3 10-4 2-2 2 1-4 4-13h2z" fill="#DDE7F6"/>
<path transform="translate(991,557)" d="m0 0 2 2v3l5 2 4 6v2l3 1-2 1-9-5-3-9z" fill="#D06BFF"/>
<path transform="translate(840,524)" d="m0 0 1 4h-3l-2 5-9 8h-2l1-4 7-7z" fill="#DFE4F5"/>
<path transform="translate(638,197)" d="m0 0 4 1-3 3-14 5-5-1 2-2z" fill="#B6C2DC"/>
<path transform="translate(570,238)" d="m0 0 2 1-9 10-6 5-5 3-6 5 2-4 9-8 4-3h2l2-4 3-1z" fill="#475A73"/>
<path transform="translate(614,134)" d="m0 0h2v2l-20 8v-4l12-5z" fill="#BDC3DE"/>
<path transform="translate(1189,1100)" d="m0 0h3v2h-2v18h-2l-3-13v-3z" fill="#56CFDA"/>
<path transform="translate(599,701)" d="m0 0 11 3 8 3-4 3-4-1-13-5 2-1z" fill="#D1D8EE"/>
<path transform="translate(913,578)" d="m0 0 5 1 5 3-2 2-2-1-2 4-5-2v-6z" fill="#2D3447"/>
<path transform="translate(532,274)" d="m0 0 2 1-2 4-2 3h-2v2h-2l-1 5-2 1v-3l-3 2 2-5 5-6z" fill="#C8D1EB"/>
<path transform="translate(1260,509)" d="m0 0 2 1v13l-2-4v-2l-3 1-7-5v-2l10 2z" fill="#42B3D8"/>
<path transform="translate(1011,489)" d="m0 0h1v8l-3 10h-3l-1-3 2-6 3-8z" fill="#D6E2F4"/>
<path transform="translate(632,131)" d="m0 0 5 1 2 2-9 2-6 2h-6l2-1v-2z" fill="#3D435A"/>
<path transform="translate(985,820)" d="m0 0h32l-1 2-22-1 1 3h-10z" fill="#2C3143"/>
<path transform="translate(962,566)" d="m0 0 3 3v5l1 5-2 4-2-4v-3l-3 1 1-7h2z" fill="#AF5CFE"/>
<path transform="translate(686,561)" d="m0 0 6 2 2 6v6l-3 3-2-1 1-8-2-5h-2z" fill="#1B2831"/>
<path transform="translate(945,471)" d="m0 0h1v8l-3 11-2-2-2 1 3-14h2z" fill="#D8DBF3"/>
<path transform="translate(578,336)" d="m0 0 1 4-3 5-4 8-3-2 3-9 5-5z" fill="#D9DFF6"/>
<path transform="translate(1380,321)" d="m0 0 1 2-3 4-5 2-8 5-3 3-3-1 7-6 11-8z" fill="#343950"/>
<path transform="translate(649,647)" d="m0 0h7l10 3 6 2v1h-7l-16-4z" fill="#E5ECF4"/>
<path transform="translate(581,515)" d="m0 0 4 4 6 8v2l3 1 3 5-4-1v-3l-4-1-3-4v-2h-2l-3-5z" fill="#444A6A"/>
<path transform="translate(686,260)" d="m0 0h8l-1 3-9 2h-7v-3z" fill="#C4CADF"/>
<path transform="translate(266,933)" d="m0 0h1l-1 21-9-3v-2l-2-1h6l4 2v-16z" fill="#33394B"/>
<path transform="translate(1260,652)" d="m0 0 17 1 2 1h21l-2 2h-22l-16-3z" fill="#9896ED"/>
<path transform="translate(553,416)" d="m0 0h1l1 24-3-1v-22z" fill="#EBEEFA"/>
<path transform="translate(1341,159)" d="m0 0 4 3 6 1 8 6-1 3-4-2-5-3v-2l-5-1-3-3z" fill="#323448"/>
<path transform="translate(81,855)" d="m0 0h31v1l-18 1-2 1-13-1z" fill="#605D7C"/>
<path transform="translate(535,175)" d="m0 0 2 1-2 4-5 4-7 5-2 2v-3l7-8z" fill="#E8E7F9"/>
<path transform="translate(537,579)" d="m0 0 5 3 7 8 5 6h-3l-9-8-5-7z" fill="#373C51"/>
<path transform="translate(724,188)" d="m0 0h18l16 4v1l-14-1v-2l-20-1z" fill="#737CD9"/>
<path transform="translate(1292,149)" d="m0 0 6 3 1 4-8 4-4-1 3-1 2-5 2-1z" fill="#3C3D53"/>
<path transform="translate(635,643)" d="m0 0 9 1 8 2-3 1v2l2 1-7-1-9-5z" fill="#C6CCE8"/>
<path transform="translate(1202,1087)" d="m0 0 1 2 3 1-7 3-5 3-4-1 3-3 1-3 5-1 3 1z" fill="#4ABFD8"/>
<path transform="translate(855,609)" d="m0 0 9 3 4 4v8l-2-2-2-6-10-5z" fill="#E7E5EA"/>
<path transform="translate(917,996)" d="m0 0 3 4-1 9-2 9h-1v-11l-1-8h2z" fill="#FE6B94"/>
<path transform="translate(585,696)" d="m0 0 6 1 8 3v3l-9-2-6-3z" fill="#D9E0F2"/>
<path transform="translate(1229,636)" d="m0 0 22 1v1l-16 1h-22v-1l13-1z" fill="#8373FB"/>
<path transform="translate(1278,361)" d="m0 0 4 1 4 7 1 5-4-2-4-5z" fill="#333A4F"/>
<path transform="translate(1351,277)" d="m0 0h1v13l-3 4-3-1 1-5z" fill="#404366"/>
<path transform="translate(986,586)" d="m0 0 11 3 7 3-4 1-12-3-5-2z" fill="#E7E5EA"/>
<path transform="translate(488,220)" d="m0 0v3l-5 7h-2l-1 4h-3l-3 2 2-4 4-5z" fill="#DEDFF9"/>
<path transform="translate(799,204)" d="m0 0 10 3 10 4 1 3-9-3-9-4-6-1z" fill="#6E6FAE"/>
<path transform="translate(758,1138)" d="m0 0m-3 1h3l-1 3-6 3-5-1-3-1v-2z" fill="#43B5D8"/>
<path transform="translate(748,1148)" d="m0 0 3 3v2h-2l-2 4-1 3-2-5-2-1 4-5z" fill="#55CDD9"/>
<path transform="translate(681,578)" d="m0 0 8 1-4 2 8 2v1h-7l-14-4v-1z" fill="#9197D8"/>
<path transform="translate(464,251)" d="m0 0 2 1-2 4h-2l-1 5-3 3v-3l-3 2 2-5 5-5z" fill="#C6CDE9"/>
<path transform="translate(235,940)" d="m0 0 1 2h2l3 4-2 5h-2l-2-3h-2l1-5z" fill="#625F87"/>
<path transform="translate(1266,630)" d="m0 0 8 1-8 8h-2l1-8z" fill="#2E3342"/>
<path transform="translate(600,626)" d="m0 0 4 1 11 6v1l-7-1-8-4z" fill="#EAEEF4"/>
<path transform="translate(1006,576)" d="m0 0h1l2 9v8l-2 3-2-7v-8z" fill="#D76DFF"/>
<path transform="translate(896,1140)" d="m0 0h9l-2 3-1 2-5 1-1-2h-2v-3z" fill="#3B3B4C"/>
<path transform="translate(822,821)" d="m0 0h13l1 4-3 2h-7l4-4-8-1z" fill="#1F2935"/>
<path transform="translate(666,650)" d="m0 0 21 3v1l-17 1-5-1 3-2z" fill="#B0BDF2"/>
<path transform="translate(682,580)" d="m0 0h13l4 1v3l-11-1-6-2z" fill="#CDDEEC"/>
<path transform="translate(956,544)" d="m0 0h2v11l-1 3h-2l-2-6z" fill="#1E2633"/>
<path transform="translate(566,689)" d="m0 0 6 2 12 6v2l-5-1-13-7z" fill="#3D384D"/>
<path transform="translate(678,723)" d="m0 0h14l7 1v2h-10l-11-2z" fill="#EEEDF1"/>
<path transform="translate(688,667)" d="m0 0h2v8h-2v4l-3-1 1-9z" fill="#1B2831"/>
<path transform="translate(429,319)" d="m0 0h1l-1 9-2 5-3-1 2-9 1-3z" fill="#E9EDF7"/>
<path transform="translate(743,566)" d="m0 0h2l6 9 4 8-4-2-7-11z" fill="#D76CFE"/>
<path transform="translate(735,264)" d="m0 0h13l5 2v2l-12-1-6-2z" fill="#474A69"/>
<path transform="translate(673,775)" d="m0 0h20 4 1v6l-2 1-2-5-21-1z" fill="#2B2C3F"/>
<path transform="translate(666,654)" d="m0 0 22 2v1l-17 1-4-1z" fill="#525B87"/>
<path transform="translate(1302,343)" d="m0 0 5 5v4l-3 1-4-4z" fill="#6E53E3"/>
<path transform="translate(439,295)" d="m0 0 1 4-4 9-3-1 1-7h2l2-4z" fill="#E0EBF3"/>
<path transform="translate(1013,480)" d="m0 0 2 2-2 11-2-3-2 1 2-9z" fill="#CAD4EF"/>
<path transform="translate(599,216)" d="m0 0 1 3-10 6-4-2 8-5z" fill="#D7E1F0"/>
<path transform="translate(508,310)" d="m0 0 1 3-4 8-5 2 4-10z" fill="#E0E7F5"/>
<path transform="translate(294,927)" d="m0 0h1v6l-3 3-16-2v-2l13 1 4-2z" fill="#886BF3"/>
<path transform="translate(736,260)" d="m0 0 11 1-4 1v2l-18-1v-1l11-1z" fill="#96A2EF"/>
<path transform="translate(1443,600)" d="m0 0 5 1h9l1 3h-14z" fill="#2D3445"/>
<path transform="translate(1460,572)" d="m0 0h1v7l-4 3-6 2v-2l8-7z" fill="#D5578C"/>
<path transform="translate(651,573)" d="m0 0h5l8 3 5 2-3 1-7-2-7-1z" fill="#524C72"/>
<path transform="translate(867,477)" d="m0 0 1 4-4 9h-3l1-5z" fill="#F2F5F8"/>
<path transform="translate(523,184)" d="m0 0 2 1-8 10h-2l-2 4-1-3 5-6 5-5z" fill="#DBDDF7"/>
<path transform="translate(565,155)" d="m0 0 2 1-1 1 6-1-4 4-6 3-5 2 5-6z" fill="#939ACA"/>
<path transform="translate(92,821)" d="m0 0 1 3-4 8-3 1 1-6z" fill="#45B8D8"/>
<path transform="translate(614,710)" d="m0 0 6 1 3 2 13 3-4 1-12-2-2-1v-2z" fill="#4E4B78"/>
<path transform="translate(621,640)" d="m0 0 9 3 6 3-1 2-13-5-2-2z" fill="#2F3448"/>
<path transform="translate(852,337)" d="m0 0 3 1 5 9 2 4-3 1-4-8-3-4z" fill="#E1E6F2"/>
<path transform="translate(498,331)" d="m0 0 1 4-3 8-3-1 1-6 2-4z" fill="#EDF3F6"/>
<path transform="translate(533,180)" d="m0 0h5l-4 4h-2v2h-4v2l-6 2 5-5 5-2z" fill="#455571"/>
<path transform="translate(562,162)" d="m0 0 4 1-12 7h-5l3-3z" fill="#404261"/>
<path transform="translate(1022,1076)" d="m0 0 1 2h2l1 4-1 4 4 1v2l2 1-7-1z" fill="#2D3245"/>
<path transform="translate(667,791)" d="m0 0h3v2h-2v6l-5 1-2-1z" fill="#2E3542"/>
<path transform="translate(584,327)" d="m0 0 1 3-1 2h-2v3h-2l-1 3h-3l2-6z" fill="#E5E5F8"/>
<path transform="translate(801,287)" d="m0 0 6 3 8 6-2 1-6-3-6-4z" fill="#4A5170"/>
<path transform="translate(540,265)" d="m0 0 1 3-5 5-1 2-4 1-3 2 2-4 2-3 5-3z" fill="#DEDDF8"/>
<path transform="translate(569,235)" d="m0 0 2 1-3 3v3l-7 6-1-3 4-5z" fill="#C8D1F2"/>
<path transform="translate(590,224)" d="m0 0 2 1-1 3-5 3-2 2h-5l3-3h2l1-3z" fill="#474D74"/>
<path transform="translate(573,151)" d="m0 0h5l-4 4-5 3-4-1z" fill="#E1EAF2"/>
<path transform="translate(996,936)" d="m0 0 4 1 1 1v6h-3l-2-3z" fill="#1C2430"/>
<path transform="translate(1051,821)" d="m0 0 3 1 2 3-1 8h-2z" fill="#1B2831"/>
<path transform="translate(630,643)" d="m0 0 6 1 8 4 1 2-8-1-2-3-5-2z" fill="#474564"/>
<path transform="translate(837,530)" d="m0 0 1 3-3 4 3 3h-8l2-4z" fill="#303549"/>
<path transform="translate(606,304)" d="m0 0h2l-2 4-10 10-2-1 6-7 5-5z" fill="#3E576D"/>
<path transform="translate(625,285)" d="m0 0 2 1-3 5h-2v2l-4 1v2h-2l2-4 1-3z" fill="#DCE0F8"/>
<path transform="translate(655,197)" d="m0 0h10l-4 2-9 2-5 1 2-1v-2z" fill="#2C3142"/>
<path transform="translate(649,194)" d="m0 0 3 1-3 3-8 2 1-4z" fill="#B8D1E8"/>
<path transform="translate(595,146)" d="m0 0 2 1-6 4-9 3 1-3z" fill="#2D3344"/>
<path transform="translate(976,1138)" d="m0 0h3l-1 5h-2v2l-4 2 1-6z" fill="#33344C"/>
<path transform="translate(236,955)" d="m0 0 16 1-1 2-12 1v-2l-3-1z" fill="#876DFE"/>
<path transform="translate(998,947)" d="m0 0h1l1 7h1l1 7-5-1z" fill="#222C37"/>
<path transform="translate(869,597)" d="m0 0 7 1 9 2 2 2-11-1-7-3z" fill="#EE74FF"/>
<path transform="translate(667,576)" d="m0 0h8l6 2v1h-12l-2-1z" fill="#CCDBF1"/>
<path transform="translate(787,279)" d="m0 0 5 2 8 5-4 1-9-5z" fill="#494562"/>
<path transform="translate(877,432)" d="m0 0h1v11l-4 3v-6l2-3z" fill="#D5E2F3"/>
<path transform="translate(824,215)" d="m0 0 6 2 7 5 4 2-2 1-8-4-7-4z" fill="#6975B9"/>
<path transform="translate(662,194)" d="m0 0h5l-4 2-12 3-4-1 7-3z" fill="#6A6B9E"/>
<path transform="translate(190,593)" d="m0 0 2 1-1 6-1 4-3 1 1-7z" fill="#57D0DA"/>
<path transform="translate(1461,573)" d="m0 0h1v6l3-1 1 3-2 3h-3l-2-4z" fill="#202935"/>
<path transform="translate(1007,505)" d="m0 0h1l-1 8-2 4-2-1 2-9z" fill="#F6F5F8"/>
<path transform="translate(949,446)" d="m0 0h1v10l-1 4h-2l1-13z" fill="#FBFBFC"/>
<path transform="translate(601,214)" d="m0 0 4 2-4 4-5 3-2-1 4-3h2l-1-2h-3z" fill="#95A2D0"/>
<path transform="translate(638,197)" d="m0 0 4 1-3 3-6 1-3-2z" fill="#B5BCD8"/>
<path transform="translate(996,971)" d="m0 0 5 1 2 5-4 2z" fill="#1E2933"/>
<path transform="translate(636,713)" d="m0 0 10 2 1 3h-7l-1-3-3-1z" fill="#CBD7F3"/>
<path transform="translate(512,303)" d="m0 0 1 3-1 3h-2l-1 2-4 2 2-5z" fill="#DAE2F1"/>
<path transform="translate(608,210)" d="m0 0 4 1-3 3-4 2-3-1 4-4z" fill="#D7E1F3"/>
<path transform="translate(561,158)" d="m0 0 2 1-5 5-4 2v-4z" fill="#D9E2F4"/>
<path transform="translate(619,131)" d="m0 0 3 1-1 1 2 2-7 1v-2l-5 1 2-2z" fill="#8E9AD2"/>
<path transform="translate(737,1150)" d="m0 0h2l1 3-6 7-1-3 1-4h3z" fill="#58D2DA"/>
<path transform="translate(852,874)" d="m0 0h2l2 7-1 3-3-1z" fill="#1B2831"/>
<path transform="translate(79,852)" d="m0 0 3 1 18 1v1l-21 1z" fill="#2E3345"/>
<path transform="translate(659,573)" d="m0 0 9 1 3 2-7 1-5-2z" fill="#C4D5EA"/>
<path transform="translate(844,519)" d="m0 0 1 4-6 3-4 4-2-1z" fill="#C8D7EC"/>
<path transform="translate(666,265)" d="m0 0h9v2l-7 2-4-1z" fill="#E1E3F1"/>
<path transform="translate(458,260)" d="m0 0 1 2-2 5h-2l-1 2-3 1 2-5z" fill="#E4EBF7"/>
<path transform="translate(964,1058)" d="m0 0h1v7l-4 2-2-6 3 1z" fill="#1B2831"/>
<path transform="translate(151,974)" d="m0 0 4 1 2 3h-7l-5 4 2-4z" fill="#2E3444"/>
<path transform="translate(578,692)" d="m0 0 5 1 4 3-5 1-5-3z" fill="#DFEBF4"/>
<path transform="translate(200,564)" d="m0 0h2l1 9-4-1z" fill="#42B4D8"/>
<path transform="translate(628,206)" d="m0 0 4 2-6 2-9 1v-2z" fill="#3D3F59"/>
<path transform="translate(755,193)" d="m0 0 7 1 6 2v1h-7l-6-2z" fill="#3D3E5D"/>
<path transform="translate(580,147)" d="m0 0 3 1-3 2 1 2h-2v2l-4 2-3-1 5-3-2-2z" fill="#8094D0"/>
<path transform="translate(608,776)" d="m0 0h16l-4 2h-10l-4 1v-2z" fill="#2E3542"/>
<path transform="translate(598,704)" d="m0 0 12 4-1 3-10-5z" fill="#3E4056"/>
<path transform="translate(585,698)" d="m0 0 12 5v2l-10-3z" fill="#3E3D57"/>
<path transform="translate(690,654)" d="m0 0 9 1v3h-11v-1h6v-2z" fill="#B2BCED"/>
<path transform="translate(658,648)" d="m0 0 8 2 6 2v1h-7l-5-1z" fill="#DFE6F4"/>
<path transform="translate(1251,619)" d="m0 0 5 1-2 7-4 1z" fill="#E079A0"/>
<path transform="translate(853,506)" d="m0 0 1 4-3 1-1 3h-3l2-5 2-2z" fill="#CDD7F1"/>
<path transform="translate(869,471)" d="m0 0h1v6l-4 2-2 2 2-8z" fill="#C4D4EA"/>
<path transform="translate(1373,284)" d="m0 0 9 1 3 2v2l-10-3z" fill="#E7E5EA"/>
<path transform="translate(489,221)" d="m0 0v3l-3 5-4 5-2-1 1-3 4-4z" fill="#42546E"/>
<path transform="translate(601,219)" d="m0 0 3 1-12 7-3-1 3-3 7-3z" fill="#31364D"/>
<path transform="translate(1341,159)" d="m0 0 4 3 6 1 1 2-1 2h-2v-2l-5-1-3-3z" fill="#4D5269"/>
</svg>
