<?xml version="1.0" encoding="UTF-8"?>
<svg version="1.1" viewBox="0 0 1600 1209" width="1280" height="1280" xmlns="http://www.w3.org/2000/svg">
<path transform="translate(1112,71)" d="m0 0 5 2 4 9 4 14 102 1 8 3 7 9v47l7-1 31-1 4 5h9l4-2h3l-3-7-4-1-8-7-6-12v-19h2l1-7 4-5 2-10 6-3 2-5-3-4 1-3 7 3 1-5 7 3 4-4 5 1 8 4 18 3 10 5 5 10 5 15v10l-6 8-4 6-5 5-2 5-3 8-3 3v6l3 3 9 6 14 12 13 12 6 10 3 8 2 11v27l1 7v15l-1 6v14l-3 12-2 10-3 5-12 9-11 8-16 16-5 2-1 5-3 3-7 1 2 16v14l5 1-1 3v22l-2 16-4 21v8l3 29 1 11 4 16 2 13-1 10-3 16-3 25-4 21-4 5v18l2 6v13l-21 6 35 4 12 3 4 2-1 4-9 3-11 2-24 2h-66l-21-2-16-3-5-3 2-4 9-3 20-3 13-1h13l-4-5v-3l10-5 8-8 9-7 4-2 2-4 4-4 3-10 1-1 2-12 1-2 1-12 2-8-1-41-2-21h-5l-6-13-2-13-3-28v-3l-7-1v6l-4 10-4 14-6 12-4 4 1 5 1 1v71l-2 12-4 6-3 6v5l4 4 3 9-4 5v8l2 6-4 3-9 1h-29l-4 2-9 1-2 1h-18l-9-3-4-4-1-6 6-2 14-3 17-9 4-2 2-4 6-3v-11l4-4 4-6-1-13 1-17-1-23-1-2-1-19-2-5-1-9-2-3v-11l2-11 1-13 1-2 1-47 5-17 2-12 5-15 4-10 1-5-10 3h-52l1 13-3 11-5 8-14 7-11 3h-6l5-4 4-6 3-12v-14l-1-5-123-1 4 23 2 17 1 29-1 26-4 29-6 27-7 22-5 13h90l9 3 5 5 4 6 1 4v243l-3 9-4 5-8 4-54 1-3-1v20l-6 12-7 6-11 5-15 3-4-1 8-5 5-10 1-8v-18l-1-3h-28l-5-1 6 28 1 8v23l-1 15v30l6 19 1 5v9l-1 3v13l9 24 7 22 3 13 1 9v14l3 15 4 13 2 16-5 13v16l4 20 1 13-6 2h-15l-16-3-15-6-2-3 1-7 4-5 7-2-4-6-3-10 1-5 6-8 2-5-6-3-7-8-3-11 2-20v-21l-1-10-4-11-5-20-6-12-5-17-2-13-5-11-6-20-8-21-2-1-4 11v38l2 21-2 4-1 9 2 18 1 53-2 11v8l5 10 3 10-1 7-2 5v5l5 2-4 12-1 6v8l4 24 1 2h41l29 2 20 3 9 4 1 3-6 3-25 4-36 2h-16l-27-1-21-2-17-3-5-3v-3l6-3 12-3-18-7-3-4 1-6 4-5 10-4h2l-9-19v-6l2-2 5-1-1-3-6-5v-7l5-11-1-6-1-4-2-20-2-15-2-20-4-18-3-12-3-10-1-47-5-39-3-30v-49h-60l-89-1-8-4-6-9-1-3v-64l-38-5-28-6-23-7-22-9-25-12-20-12-17-12-14-11-6-4-3 9-6 5-7 3-7 1h-48v14l-2 9-6 9-9 7-7 3-15 3-3-1 8-5 3-6 2-6 1-27h-95v16l1 2 2 36 1 12v18l-1 4-1 25-5 21-3 25-10 48-4 22v10l2 12v5l7 2 7 5 9 2 6 3 3 3-1 5-3 2h-20l-1-1h-14l-2 1h-6l-4-2h-6l-2-3v-18l3-1-1-2v-8l2-15 1-20v-38l5-25 5-18v-8l-2-5-3-22-7-17-7-18-4-14h-2l-4 15-9 45-3 20-6 20-3 15-2 42-3 21v12l2 15 8 16v4l7 1 10 4 10 3 2 2v6l-3 3-9 1-25 1-8 3-4 1h-9l-6-10v-8l2-2 2-9v-18l-3-20-5-38v-19l3-22 5-21 2-11 1-4v-21l-4-38-1-17-3-6-1-6v-14l2-10-53 1-3 5-3 11-5 8-4 3-8 1-8-2-3-4 1-9 6-9 3-5h-25l-6-4-5-6-2-6v-243l2-8 4-6 5-4 5-2 112-1v-2l6-5 7-1 1-1h5l1 1 7 1 6 3 3 4h76l8-11 7-8 9-8 5-1 4 4 1 6-5 8-9 6v4h51l4-32 6-28 11-33 11-25 10-19 12-19 12-16 9-11 9-10 11-12 15-14 14-11 18-13 20-12 23-12 25-10 22-7 26-6 27-4 13-1h38l29 3 26 5 28 8 21 8 17 8v-27l6-9 8-4h225v-8l4-8 8-7zm-420 41-26 3-29 6-29 9-21 9-22 11-21 13-17 12-13 11-8 7-13 12-11 12-11 14-10 13-14 22-14 27-10 25-8 26-5 24-4 31 4 1 2-7 5-32 6-24 9-27 11-24 9-17 10-16 3-3-2 4-14 24-8 16-10 24-7 21-6 25-5 33v3h61l5-28 5-20 8-23 12-25 11-18 9-12 8-10 11-12 11-11 11-9 15-11 20-12 23-11 19-7 24-6 25-4 18-1h13l26 2 22 4 21 6 19 7 21 10 18 11 4 3 3-1-1-68-14-7-19-8-27-9-34-7-13-2-12-1h-40l-21 2-31 6-19 5-25 9-24 11-16 9-14 9-11 8-1-1 17-12 21-12 16-8 19-8 19-7 16-5 17-4 31-4 17-1h17l27 2 26 4 28 7 28 10 21 10h1v-5l-16-8-26-10-24-7-26-5-25-3zm13 76-28 3-23 5-24 8-24 11-17 10-14 10-11 9-10 9-15 15-11 14-7 10-12 20-10 21-8 22-6 26-2 13v5l1 1 10 2 6 4 4 5 1 3 1 112 10 18 8 12 10 13 12 13 17 17 17 13 15 10 27 14 21 8 23 6 25 4h8v-69l-28-6-20-7-16-8-16-10-13-11-10-9-9-11-10-14-9-16-8-20-5-19-2-12-1-12v-19l2-16 3-15 7-21 8-16 8-14 11-14 11-12 10-9 16-11 16-9 17-7 17-5 17-3 12-1h17l19 2 21 5 23 9 16 9 14 10 11 10 5 4 7 8 14 18h2l-1-99-18-12-18-10-24-10-27-8-21-4-21-2zm-3 77-20 3-20 6-16 7-16 9-12 9-10 9-13 13-10 14-9 15-7 16-5 15-3 14-2 17v19l3 22 6 21 7 17 10 17 11 14 12 13 13 11 15 10 16 8 15 6 20 5 12 1 1-19 3-8 2-4 10-4 10-1-4-12 1-7 6-8 7-8 5-1 5 3 5 8 1 3v21l1 1h64l8-7 12-12 11-15 10-18 8-21 5-21 1-9v-32l-3-19-5-17-7-16-9-17-10-13-9-10-12-12-18-13-21-11-21-7-20-4-9-1zm645 21-9 21-1 4 4 1 12-12 2-4-1-6-3-4zm-334 68 1 10 3 19 2 20v39l-4 33-6 26-6 20-6 17v2l5-1 10-28 7-27 4-24 2-24v-29l-2-24-4-25-2-4zm-507 189v98l11 10 14 11 17 12 21 13 29 14 18 7 27 8 26 5 24 3h6v-62l-23-3-24-5-27-9-18-8-18-10-16-11-14-11-12-11-13-13-8-10-13-18-6-10zm0 104 3 5 15 13 18 13 25 15 15 8 24 10 24 8 25 6 27 4 17 1v-3l-13-2-27-4-26-6-30-10-24-11-20-11-18-12-19-14-9-8-4-2z" fill="#735BFD"/>
<path transform="translate(737,503)" d="m0 0 5 1 5 5 4 6 1 3v21l8 16 11 14 12 16 10 10 21 9 11 4 6 3h10l8 1 5-2 8-11 2-2 7 1 10 3 6 1h15v-9l-3-9-10-12-3-6-1-5v-7l2 4 1 4 9 3 6 7 5 15 5 3h25l2 6 12 13 3 1 2-4 3-3 14-5h5l-1-12-2-4v-5l2-3v-10l-9-16-1-3v-15l2-4 6 5 10 4 6 3 3 2-3 17 2 10 1 2 10 5 1 7v8l1 7 3 24-1 12-3 10-7 9-5 4h-2l-3 17-6 15-1 8v16l2 13 5 16 6 11 5 10 8 26 2 8v6l-28 5 1 9 7 32 1 8v23l-1 15v30l6 19 1 5v9l-1 3v13l9 24 7 22 3 13 1 9v14l3 15 4 13 2 16-5 13v16l4 20 1 13-6 2h-15l-16-3-15-6-2-3 1-7 4-5 7-2-4-6-3-10 1-5 6-8 2-5-6-3-7-8-3-11 2-20v-21l-1-10-4-11-5-20-6-12-5-17-2-13-5-11-6-20-8-21-2-1-4 11v38l2 21-2 4-1 9 2 18 1 53-2 11v8l5 10 3 10-1 7-2 5v5l5 2-4 12-1 6v8l4 24 1 2h41l29 2 20 3 9 4 1 3-6 3-25 4-36 2h-16l-27-1-21-2-17-3-5-3v-3l6-3 12-3-18-7-3-4 1-6 4-5 10-4h2l-9-19v-6l2-2 5-1-1-3-6-5v-7l5-11-1-6-1-4-2-20-2-15-2-20-4-18-3-12-3-10-1-47-5-39-3-30v-49h-60l-89-1-8-4-6-9-1-3v-75l-13-2-27-4-26-6-30-10-24-11-20-11-18-12-19-14-9-8-6-3v-5l6 4 9 8 13 10 21 14 15 9 27 13 18 7 27 8 26 5 30 4v-62l1-4-14-1-5-2v-1h9l8 1 1-78-2-1h2v-19l3-8 5-5 8-4h10l-4-8-1-8 4-8 11-12z" fill="#FDFCFC"/>
<path transform="translate(353,371)" d="m0 0 5 1 3 5-1 6-4 6-9 6-16 34-11 23-5 11-7 18-22 34-4 13 1 7 6 8 1 2v14l-1 6v16l7 32 9 20 2 7 4 25 2 14-1 4v12l1 2 2 36 1 12v18l-1 4-1 25-5 21-3 25-10 48-4 22v10l2 12v5l7 2 7 5 9 2 6 3 3 3-1 5-3 2h-20l-1-1h-14l-2 1h-6l-4-2h-6l-2-3v-18l3-1-1-2v-8l2-15 1-20v-38l5-25 5-18v-8l-2-5-3-22-7-17-7-18-4-14h-2l-4 15-9 45-3 20-6 20-3 15-2 42-3 21v12l2 15 8 16v4l7 1 10 4 10 3 2 2v6l-3 3-9 1-25 1-8 3-4 1h-9l-6-10v-8l2-2 2-9v-18l-3-20-5-38v-19l3-22 5-21 2-11 1-4v-21l-4-38-1-17-3-6-1-6v-14l2-10-53 1-3 5-3 11-5 8-4 3-8 1-8-2-3-4 1-9 6-9 3-5h-25l-6-4-5-6-2-6v-243l2-8 4-6 5-4 5-2 112-1v-2l6-5 7-1 1-1h5l1 1 7 1 6 3 3 4h76l8-11 7-8 9-8z" fill="#735BFD"/>
<path transform="translate(696,104)" d="m0 0h38l29 3 26 5 28 8 21 8 16 8 1 1v7l-5-1-23-10-27-9-25-6-26-4-11-1h-46l-26 3-29 6-29 9-21 9-22 11-21 13-17 12-13 11-8 7-13 12-9 10-14 17-14 20-9 15-13 25-10 25-8 26-5 24-4 31h3l6-38 6-24 9-27 11-24 9-17 10-16 5-5-1 5-10 16-10 18-12 28-8 24-6 25-5 33-1 3h61l2-18 6-27 9-26 12-25 11-18 9-12 8-10 11-12 12-12 11-9 15-11 20-12 23-11 19-7 24-6 25-4 18-1h13l26 2 22 4 21 6 19 7 21 10 18 11 6 5v8h-4l-16-10-16-9-24-10-27-8-21-4-21-2h-21l-28 3-23 5-24 8-24 11-17 10-14 10-11 9-10 9-14 14-11 14-7 10-12 20-10 21-8 22-6 26-2 13v5l10 2 6 4 5 6 1 3 1 112 10 18 8 12 10 13 12 13 16 16 17 13 15 10 27 14 21 8 23 6 25 4 8 1-1 2-13-1 1 1 14 2v4h-11l-29-5-24-7-20-8-16-8-14-8-17-12-11-9-10-9-15-15-8-10-13-18-5-8v96l1 5-1 2 4 5 11 9 17 13 21 13 22 12 24 10 24 8 25 6 27 4 17 2 1-2v10l-18-1-32-5-24-6-24-8-25-11-21-11-19-12-19-14-11-9h-1l-3 9-6 5-7 3-7 1h-48v14l-2 9-6 9-9 7-7 3-15 3-3-1 8-5 3-6 2-6 1-27h-94l-2-10-4-21-2-12-7-16-4-10-6-29v-16l1-6v-14l-8-12 1-10 4-9 15-24 8-13 9-24 8-16 18-37 2-3 1 2h51l4-32 6-28 11-33 11-25 10-19 12-19 12-16 9-11 9-10 11-12 15-14 14-11 18-13 20-12 23-12 25-10 22-7 26-6 27-4z" fill="#42B2D6"/>
<path transform="translate(1313,71)" d="m0 0 5 1 8 4 18 3 10 5 5 10 5 15v10l-6 8-4 6-5 5-2 5-3 8-3 3v6l3 3 9 6 14 12 13 12 6 10 3 8 2 11v27l1 7v15l-1 6v14l-3 12-2 10-3 5-12 9-11 8-16 16-5 2-1 5-3 3-7 1 2 16v14l5 1-1 3v22l-2 16-4 21v8l3 29 1 11 4 16 2 13-1 10-3 16-3 25-4 21-4 5v18l2 6v13l-21 6 35 4 12 3 4 2-1 4-9 3-11 2-24 2h-66l-21-2-16-3-5-3 2-4 9-3 20-3 13-1h13l-4-5v-3l10-5 8-8 9-7 4-2 2-4 4-4 3-10 1-1 2-12 1-2 1-12 2-8-1-41-2-21h-5l-6-13-2-13-3-28v-3l-7-1v6l-4 10-4 14-6 12-4 4 1 5 1 1v71l-2 12-4 6-3 6v5l4 4 3 9-4 5v8l2 6-4 3-9 1h-29l-4 2-9 1-2 1h-18l-9-3-4-4-1-6 6-2 14-3 17-9 4-2 2-4 6-3v-11l4-4 4-6-1-13 1-17-1-23-1-2-1-19-2-5-1-9-2-3v-11l2-11 1-13 1-2 1-47 5-17 2-12 5-15 4-10 2-8 3-6 1-77 3-20v-32l-3-12v-44l6-2 31-1 4 5h9l4-2h3l-3-7-4-1-8-7-6-12v-19h2l1-7 4-5 2-10 6-3 2-5-3-4 1-3 7 3 1-5 7 3zm34 215-9 21-1 4 4 1 12-12 2-4-1-6-3-4z" fill="#FCFCFC"/>
<path transform="translate(975,806)" d="m0 0h6l9 41 1 8v23l-1 15v30l6 19 1 5v9l-1 3v13l9 24 7 22 3 13 1 9v14l3 15 4 13 2 16-5 13v16l4 20 1 13-6 2h-15l-16-3-15-6-2-3 1-7 4-5 7-2-4-6-3-10 1-5 6-8 2-5-6-3-7-8-3-11 2-20v-21l-1-10-4-11-5-20-6-12-5-17-2-13-5-11-6-20-8-21-2-1-4 11v38l2 21-2 4-1 9 2 18 1 53-2 11v8l5 10 3 10-1 7-2 5v5l5 2-4 12-1 6v8l4 24 1 2h41l29 2 20 3 9 4 1 3-6 3-25 4-36 2h-16l-27-1-21-2-17-3-5-3v-3l6-3 12-3-18-7-3-4 1-6 4-5 10-4h2l-9-19v-6l2-2 5-1-1-3-6-5v-7l5-11-1-6-1-4-2-20-2-15-2-20-4-18-3-12-3-10-1-47-5-39-3-30v-49h-33l3-3 3-2 9-1 23-1h30l3 1h14l40-5z" fill="#F96393"/>
<path transform="translate(1011,355)" d="m0 0h2l3 13 3 23 1 12v39l-4 33-6 26-6 20-7 19 5-1 98 1 9 3 5 5 4 6 1 4v243l-3 9-4 5-8 4-54 1-3-1v20l-6 12-7 6-11 5-15 3-4-1 8-5 5-10 1-8v-18l-1-3h-28l-6-1-2-9 1-5 23-4h5l-5-21-8-24-9-16-5-16-2-13v-16l2-11 5-12 3-15 5-5 5-4 5-8 3-14-1-15-2-10v-10l-1-2v-15l-5-2-6-3-3-9 2-12 2-8-4-2-13-5-6-4-2-2-1 3v15l8 16 2 3v10l-2 3 1 7 1 2v12l-13 4-7 3-4 5-4-1-13-14v-5l-4 1h-21l-5-3-3-8-4-9-5-6-8-2-1-4 2 2 8 1 5 5 5 12 2 8 16 1 15-1 6-4 6-15 5-13 2-15 3-1 5 1v-15l4-2 7 5 16 8h2l3-11 8-26 6-26 3-20 1-11v-35l-2-22-4-25z" fill="#AD5AFC"/>
<path transform="translate(229,390)" d="m0 0h5l1 1 7 1 6 3 3 4 75 1-5 10-11 17-9 17-11 19-7 7-8 7-8 10-6-2-2 1h-7l-8 7-8 1-1 4v31l-4 11-7 9-7 4-7 2h-16l-16-4-2-1-1 14-4 23-4 11-12 24-11 26-6 16-7 11-4 4h-27l-6-4-5-6-2-6v-243l2-8 4-6 5-4 5-2 112-1v-2l6-5 7-1z" fill="#5DDAD9"/>
<path transform="translate(725,538)" d="m0 0 7 6 6 9 2 6-5 6 3 10 10 14 12 20 4 7 18 10 16 9 15 8 9 4 21 9-3 22-3 32-4 24-4 13-1 16-5 28v16l-2 13-107-1-8-4-6-9-1-3v-75l-13-2-27-4-26-6-30-10-24-11-20-11-18-12-19-14-9-8-6-3v-5l6 4 9 8 13 10 21 14 15 9 27 13 18 7 27 8 26 5 30 4v-62l1-4-14-1-5-2v-1h9l8 1 1-78-2-1h2v-19l3-8 5-5 8-4h10z" fill="#E274FD"/>
<path transform="translate(865,354)" d="m0 0 74 1v3h2l6 28 2 13 1 13v23l-3 25-5 23-8 24h-2v5l3-1 5-17 6-22 3-17 2-31-1-25-4-27-2-8v-9h66l3 10 4 28 1 14v35l-3 25-5 25-8 27-6 17-4 1-5-4-18-9-1 1-1 15h-8v9l-3 12-7 17-3 6-6 4-23 1-8-2-7-18-2-4-3-2-8-1-2-3v-8l-4-2-2-3v-6h-51v-3l7-7 7-8 5-8h2v-3h2l1-4 10-18 7-21 4-16 2-16v-28l-3-21-6-21-3-7z" fill="#202734"/>
<path transform="translate(1300,342)" d="m0 0 5 1 5 6v2l-6 3-1 1v6l3 4 7-1 4-4 21-4-2 4-1 1-7 1 2 16v14l5 1-1 3v22l-2 16-4 21v8l3 29 1 11 4 16 2 13-1 10-3 16-3 25-4 21-4 5v18l2 6v13l-21 6 35 4 12 3 4 2-1 4-9 3-11 2-24 2h-66l-21-2-16-3-5-3 2-4 9-3 20-3 13-1h13l-4-5v-3l10-5 8-8 9-7 4-2 2-4 4-4 3-10 1-1 2-12 1-2 1-12 2-8-1-41-2-21h-5l-6-13-2-13-3-28v-3l-7-1v6l-4 10-4 14-6 12-4 4 1 5 1 1v71l-2 12-4 6-3 6v5l4 4 3 9-4 5v8l2 6-4 3-9 1h-29l-4 2-9 1-2 1h-18l-9-3-4-4-1-6 6-2 14-3 17-9 4-2 2-4 6-3v-11l4-4 4-6-1-13 1-17-1-23-1-2-1-19-2-5-1-9-2-3v-11l2-11 1-13 1-2 1-47 5-17 2-12 5-15 4-9 20 1 10 2 1-5 12-6 13-4 6-2z" fill="#42B2D6"/>
<path transform="translate(868,813)" d="m0 0h30l3 1h22v1l-8 1-1 6 2 1-2 10-1 4v5l2 3-2 9 2 18 1 1v7l-2 8 1 7 1 8-1 3h2l2 11v28h1l1-26h1l1 33 2 21-2 4-1 9 2 18 1 53-2 11v8l5 10 3 10-1 7-2 5v5l5 2-4 12-1 6v8l4 24 1 2h41l29 2 20 3 9 4 1 3-6 3-25 4-36 2h-16l-27-1-21-2-17-3-5-3v-3l6-3 12-3-18-7-3-4 1-6 4-5 10-4h2l-9-19v-6l2-2 5-1-1-3-6-5v-7l5-11-1-6-1-4-2-20-2-15-2-20-4-18-3-12-3-10-1-47-5-39-3-30v-49h-33l3-3 3-2 9-1z" fill="#FD8796"/>
<path transform="translate(353,371)" d="m0 0 5 1 3 5-1 6-4 6-9 6-16 34-11 23-5 11-7 18-22 34-4 13 1 7 6 8 1 2v14l-1 6v16l7 32 9 20 1 5-16 3h-19l-4-2-13-1h-38l-1-2 1-13 3-4 1-16-5-9-3-9-6-10-6-13-3 15-9 25-4 13-13 24-12 21-9 19-4 6-3 11-5 8-4 3-8 1-8-2-3-4 1-9 6-9 3-5 6-5 7-12 11-29 17-35 4-11 4-23 2-14 16 3 2 1h16l10-3 6-5 5-8 3-9v-31l2-5 8-1 8-7h7l3-1 5 2 9-11 14-13 11-20 9-17 13-20 4-6 8-11 7-8 9-8z" fill="#FDFCFC"/>
<path transform="translate(229,390)" d="m0 0h5l1 1 7 1 6 3 3 4 75 1-5 10-11 17-9 17-11 19-7 7-8 7-8 10-6-2-2 1h-7l-8 7-8 1-1 4v31l-4 11-7 9-7 4-7 2h-16l-16-4-10-5-10-9v-6l14-29 9-27 3-12v-18l-3-8v-14l4-8 9-7 13-6 1-2 7-1v-2l6-5 7-1z" fill="#955F7E"/>
<path transform="translate(865,354)" d="m0 0 74 1v3h2l6 28 2 13 1 13v23l-3 25-5 23-8 24h-2l-2 5-16 3-16 7-9 2-3 8-4 6-2 1-36-1-3-3v-10l4-4 4-7h2v-3h2l1-4 10-18 7-21 4-16 2-16v-28l-3-21-6-21-3-7z" fill="#1E2632"/>
<path transform="translate(1237,357)" d="m0 0 20 1 7 1 1 2h-2l1 7-4 7-2 9-2 13 1 9v34l2 9 3 9 1 6v13l-2 6-1 8 2 1-4 4 1 5 1 1v71l-2 12-4 6-3 6v5l4 4 3 9-4 5v8l2 6-4 3-9 1h-29l-4 2-9 1-2 1h-18l-9-3-4-4-1-6 6-2 14-3 17-9 4-2 2-4 6-3v-11l4-4 4-6-1-13 1-17-1-23-1-2-1-19-2-5-1-9-2-3v-11l2-11 1-13 1-2 1-47 5-17 2-12 5-15z" fill="#56D1D8"/>
<path transform="translate(204,714)" d="m0 0h45l4 7 4 2-4 15-9 45-3 20-6 20-3 15-2 42-3 21v12l2 15 8 16v4l7 1 10 4 10 3 2 2v6l-3 3-9 1-25 1-8 3-4 1h-9l-6-10v-8l2-2 2-9v-18l-3-20-5-38v-19l3-22 5-21 2-11 1-4v-21l-4-38-1-17z" fill="#FED1C4"/>
<path transform="translate(861,351)" d="m0 0 3 4 6 14 5 18 3 21v28l-3 21-6 21-5 12-9 17-2 4h-2v3h-2l-2 4-3 5-14 15v1l51 1 2 8 4 3v7l-1 3 3 9 12 16 2 7v9l-1 1h-15l-14-3-4-2h-5l-8 10-4 4-8 1-3-1h-10l-13-6-11-4-14-6-13-13-10-14-11-14-6-12v-3l71-1 8-7 9-11 7-9 10-17 5-10 7-21 4-18 2-21-1-18-4-24-6-19-4-10z" fill="#E274FD"/>
<path transform="translate(312,715)" d="m0 0h1l2 18 1 12v18l-1 4-1 25-5 21-3 25-10 48-4 22v10l2 12v5l7 2 7 5 9 2 6 3 3 3-1 5-3 2h-20l-1-1h-14l-2 1h-6l-4-2h-6l-2-3v-18l3-1-1-2v-8l2-15 1-20v-38l5-25 5-18v-8l-2-5-3-22-7-17-7-18-3-13 40-4z" fill="#FED0C4"/>
<path transform="translate(989,927)" d="m0 0h2l5 15 1 5v9l-1 3v13l9 24 7 22 3 13 1 9v14l3 15 4 13 2 16-5 13v16l4 20 1 13-6 2h-15l-16-3-15-6-2-3 1-7 4-5 7-2-4-6-3-10 1-5 6-8 2-5-6-3-6-7 2-9v-5l3 3 3 7 2 1-6-14 3-6 3 2-1 2h2l-1-5 1-7-3-9h2l1-17-1-9-1-15-1-4 3-10 1-3-1-4 3-8 2-4 2-5-2-4-6-1-5-1 1-5 4-6 4-17 2-3-1-8z" fill="#F94F97"/>
<path transform="translate(1313,71)" d="m0 0 5 1 8 4 18 3 10 5 5 10 5 15v10l-6 8-4 6-5 5-2 5-3 8-3 3v6l1 5-5 5-8 4-3 1h-16l-7-4-2-4-2-14-3-3-5-2-7-8-5-10v-19h2l1-7 4-5 2-10 6-3 2-5-3-4 1-3 7 3 1-5 7 3z" fill="#5E5F79"/>
<path transform="translate(696,104)" d="m0 0h38l29 3 26 5 28 8 21 8 16 8 1 1v7l-5-1-23-10-27-9-25-6-26-4-11-1h-46l-26 3-29 6-29 9-21 9-22 11-21 13-17 12-13 11-8 7-13 12-9 10-14 17-14 20-9 15-13 25-10 25-8 26-5 24-4 29-1 3h-8l4-33 6-28 11-33 11-25 10-19 12-19 12-16 9-11 9-10 11-12 15-14 14-11 18-13 20-12 23-12 25-10 22-7 26-6 27-4z" fill="#0B0A0E"/>
<path transform="translate(936,506)" d="m0 0h1v7h2l7 8 10 9 4 4 2 3 3 1 1-12h1v14h-8v9l-3 12-7 17-3 6-6 4-23 1-8-2-7-18-2-4-3-2-8-1-2-3v-8l-4-2-2-3v-6h-51v-3l11-11 1 6v5l39 1 5-8 3-7 11-3 17-7 13-1 1-3 1 3 3-1z" fill="#2C2C3D"/>
<path transform="translate(199,561)" d="m0 0 3 3 13 26 3 8 3 5-1 16-3 4-1 13v7l-7 18-5 13-2 5h-52l3-9 12-23 12-21 8-16 5-16 7-20z" fill="#56D0D8"/>
<path transform="translate(1292,615)" d="m0 0 16 6 10 6 4 1 3 5v13l-21 6 35 4 12 3 4 2-1 4-9 3-11 2-24 2h-66l-21-2-16-3-5-3 2-4 9-3 20-3 13-1h13l-4-5v-3l10-5 8-8 9-7 4-2 2-4z" fill="#FDFBFA"/>
<path transform="translate(700,262)" d="m0 0h29l18 2 20 5 19 8 9 5v2l6 2 8 5v2l6 2v2h3l6 7 4 1 3 7 7 6 10 13 3 3 2 5 6 10 6 12 6 18 4 20 2 20-1 18-3 19-6 21-4 9-8 16-8 13-11 13-10 11-2 1h-7l6-7 12-12 11-15 10-18 8-21 5-21 1-9v-32l-3-19-5-17-7-16-9-17-10-13-9-10-11-11-18-13-21-11-21-7-20-4-9-1h-25l-20 3-20 6-16 7-16 9-12 9-10 9-12 12-10 14-9 15-7 16-5 15-3 14-2 17v19l3 22 6 21 7 17 10 17 11 14 12 13 12 10 15 10 16 8 15 6 32 8v4l-4 1-23-5-15-5-14-6-18-11-14-11-13-12-9-10-9-13-10-17-5-12-4-9-2-8-2-12-2-8v-41l2-9 4-17 4-11 1-6h2l2-7 5-9 3-7 1-2h3l1-4 9-12 3-5 11-9 4-5 17-12 16-9 12-6 24-7z" fill="#121217"/>
<path transform="translate(256,400)" d="m0 0h70l-5 10-11 17-9 17-11 19-7 7-8 7-8 10-6-2-2 1h-6l-1-3 2-7v-9l-1-1v-17l2-6h2l1-5 2-5h2l1-4h2v-10l-7-14z" fill="#43B1D6"/>
<path transform="translate(176,550)" d="m0 0 16 3 6 2v19l-10 28-4 13-13 24-12 21-9 19-4 6-3 11-5 8-4 3-8 1-8-2-3-4 1-9 6-9 3-5 6-5 7-12 11-29 17-35 4-11 4-23z" fill="#FED2C6"/>
<path transform="translate(92,821)" d="m0 0 1 3-1 7 7 11 7 9 4-2 9-13 2-4v-10h2l6 8 4 8v5l-12 5-2 2 15 2 1 1v13l-5 37-2 4-6 2h-32l-4-2-2-3-5-36-1-15 6-2 11-1-6-4-7-2-1-1 1-9-3-1v-3l4 1z" fill="#353540"/>
<path transform="translate(962,808)" d="m0 0 3 1-13 3-3 2v7l-4 6-1 6 1 3 1 14v12l1 10v15l1 9-4 10v3l4 8-1 8-3 3h-6l-9-24-2-1-4 11-1 5-1 26-2 3-1-8v-24l-1-3v-7h-2v-7l-1-9-1-3 3-14-2-1-2-19 2-9-2-2v-7l2-5 1-7-1-4 1-3 9-3z" fill="#FB7693"/>
<path transform="translate(709,179)" d="m0 0h13l26 2 22 4 21 6 19 7 21 10 18 11 6 5v6l-5-1v-2l-5-2-15-9-18-10-19-8-25-7-18-3-13-1h-40l-24 3-28 7-17 6-15 7-12 6-14 8-15 11-10 8-12 11-13 13-13 17-10 15-6 10-1 4h-2l-1 5-1 3h-2l-1 5-5 12-5 14-6 23-4 24-1 1h-5l2-18 6-27 9-26 12-25 11-18 9-12 8-10 11-12 12-12 11-9 15-11 20-12 23-11 19-7 24-6 25-4z" fill="#0D0E11"/>
<path transform="translate(353,371)" d="m0 0 5 1 3 5-1 6-4 6-9 6-16 34-11 23-5 11-7 18-11 17-10 16h-3l-3-9-3-17-4-4-2-1 1-5 8-8 8-7 12-21 9-17 13-20 4-6 8-11 7-8 9-8z" fill="#FED2C6"/>
<path transform="translate(1232,385)" d="m0 0 3 1v8l2 11v72l1 21v18l-2 12 1 2h2l-1 7-2-1-2 10-2 8 1 10-1 10v5l-3-1v-2h-2v-11h-2l-1-3-1-30-1-2-1-19-2-5-1-9-2-3v-11l2-11 1-13 1-2 1-47 7-24 1 2z" fill="#5DDADA"/>
<path transform="translate(1287,96)" d="m0 0 13 3 5 4 2 4v9l-1 6v10h7l7-1 4 4 8 16 5 5 3 1 2 5-1 5-9 6-6 2h-16l-7-4-2-4-2-14-3-3-5-2-7-8-5-10v-19h2l1-7 4-5z" fill="#CD83AC"/>
<path transform="translate(932,1167)" d="m0 0h42l29 2 20 3 9 4 1 3-6 3-25 4-36 2h-16l-27-1-21-2-17-3-5-3v-3l6-3 13-3 29-2z" fill="#8C90A1"/>
<path transform="translate(251,980)" d="m0 0h43l27 2 18 3 8 3 1 4-7 3-18 3-30 2h-45l-28-2-18-3-6-3v-3l5-3 14-3 18-2z" fill="#8C8FA0"/>
<path transform="translate(111,400)" d="m0 0h97l-1 3-16 8-5 4-4 8v14l3 8v18l-7 25-7 18-3 4h-2l-3 7-4 5-4 6-3 1v-3h2l2-5 1-21 2-14h2v-2l4-3 3-2h2l2-7-7-2 2-4-3-2v-4l-3-1-2-4v-4l1-6 6-10 2-6v-5l-6-12 1-4h3l1-2-12-2-33-2-11-1z" fill="#56D1D8"/>
<path transform="translate(707,257)" d="m0 0h17l19 2 21 5 23 9 16 9 14 10 11 10 6 5 7 8 14 18v3h-2l-6-9v-2h-2l-3-5-3-3-7-8-3-3-6-2-1-3-4-2v-2h-3v-2l-6-2v-2l-5-2-7-4-2-1v-2l-6-2-14-7-16-5-17-4-13-1h-29l-21 3-18 5-13 5-18 10-16 11-6 5-5 6-6 5h-2l-1 4-9 11-3 6h-3l-3 9-8 16h-2v6l-6 18-3 17-1 2v41l2 8 2 12 5 16 12 24 8 12 8 10 12 13 13 11 15 10 14 8 18 7 19 5 13 2h2v4l-15-2-19-5-16-6-16-8-15-10-11-9-12-11-9-11-10-14-9-16-8-20-5-19-2-12-1-12v-19l2-16 3-15 7-21 8-16 8-14 11-14 11-12 11-10 16-11 16-9 17-7 17-5 17-3z" fill="#5C5C6D"/>
<path transform="translate(700,262)" d="m0 0h29l18 2 20 5 19 8 9 5v2l6 2 8 5v2l6 2v2h3l6 7 4 1 3 7 7 6 10 13 3 3 2 5 6 10 6 12 6 18 4 20 2 20-1 18-3 19-6 21-4 9-8 16-8 13-11 13-10 11-2 1h-7l6-7 12-12 11-15 10-18 8-21 5-21 1-9v-32l-3-19-5-17-7-16-9-17-10-13-9-10-11-11-18-13-21-11-21-7-20-4-9-1h-25l-20 3-17 5h-2v-2l-13 5-3-1 8-4 24-7z" fill="#17181D"/>
<path transform="translate(969,523)" d="m0 0 4 2 17 9 4 2 1 4-4-2-13-5-6-4-2-2-1 3v15l8 16 2 3v10l-2 3 1 7 1 2v12l-13 4-7 3-4 5-4-1-13-14v-5l-4 1h-21l-5-3-3-8-4-9-5-6-8-2-1-4 2 2 8 1 5 5 5 12 2 8 16 1 15-1 6-4 6-15 5-13 2-15 3-1 5 1v-15z" fill="#AF5BFD"/>
<path transform="translate(1216,606)" d="m0 0 4 2 12 8 23 2-1 2v8l2 6-4 3-9 1h-29l-4 2-9 1-2 1h-18l-9-3-4-4-1-6 6-2 14-3 17-9 4-2 2-4z" fill="#F87794"/>
<path transform="translate(506,650)" d="m0 0 4 2 14 12 18 13 25 15 15 8 24 10 24 8 25 6 27 4 17 2 1-2v10l-18-1-32-5-24-6-24-8-25-11-21-11-19-12-19-14-13-11z" fill="#0B0B0E"/>
<path transform="translate(92,821)" d="m0 0 1 3-1 7 7 11 7 9 4-2 9-13 2-4v-10h2l6 8 4 8v5l-12 5-2 2 15 2 1 1v13l-2 4-53-1-1-1-1-15 6-2 11-1-6-4-7-2-1-1 1-9-3-1v-3l4 1z" fill="#838598"/>
<path transform="translate(1204,660)" d="m0 0h149l2 1-1 4-9 3-11 2-24 2h-66l-21-2-16-3-5-3z" fill="#8C8E9F"/>
<path transform="translate(1018,354)" d="m0 0h7l2 4 4 27 1 9 1 29-1 26-4 29-6 27-7 22-5 13h-8l1-6 10-30 6-25 3-19 2-24v-29l-2-24-4-25z" fill="#0A0A0D"/>
<path transform="translate(697,186)" d="m0 0h44l22 3 24 6 21 8 15 8 19 11 8 5v2l5 2-1 2-5-2-14-9-16-9-24-10-27-8-21-4-21-2h-21l-28 3-23 5-24 8-24 11-17 10-14 10-11 9-10 9-14 14-11 14-7 10-12 20-10 21-8 22-6 26-3 18-4 1 4-25 6-23 3-9 4-9 5-13h2l2-8h2l1-5 8-14 13-18 11-13 18-18 14-11 15-11 18-10 16-8 17-7 19-5 21-5z" fill="#898C9E"/>
<path transform="translate(762,1133)" d="m0 0h11l1 4-9 22-8 11-10 7-8 2h-7l-5 1-3-4-1-4v-15l5-10 8-7 9-4zm10 1m-2 1-18 8-8 6-7 6 1 2 5-3 5-5 2 2 2 3-1-7 7-4 1 2 1-3 12-6zm-20 4m-14 6m5 0 4 1zm18 0 1 3zm1 4 1 3zm-24 2-3 2h4zm16 3 1 11h1l-1-11zm-9 1 1 2zm-7 2m8 0v5h1v-5zm-9 1-6 3v1h5l2 9 3 1-3-14zm10 5v7h1v-7z" fill="#5ED3DA"/>
<path transform="translate(919,1138)" d="m0 0h7l3 7 3 23-4 1-14 1h-16l-18-7-3-4 1-6 4-5 10-4h2l1-3z" fill="#2C2C3D"/>
<path transform="translate(1203,1086)" d="m0 0h8v2l-13 5-14 10-3 4 3-1 4-5 9-6h3l1 1v-3l9-4 6-1-8 21-6 9-7 7-10 5-17 1-3-8v-13l3-8 4-5 10-6 10-3zm-20 10 1 2 1-2zm-3 1m12 3 1 7 2 4-1-8zm10 0 1 3zm-29 3 2 2h5v-2zm12 4 1 8h1l-1-8zm-7 2m-2 1-6 4 2 1 4-1 1 7 2 3 2-1-2-6-1-7zm19 1v5h1v-5zm-8 4v5h1v-5z" fill="#5AD2D9"/>
<path transform="translate(737,503)" d="m0 0 5 1 5 5 4 6 1 3v21l3 8-12 8-4 1-7-11-6-5v-2h-2l-4-10 1-7 6-8 8-9z" fill="#FED1C4"/>
<path transform="translate(919,1072)" d="m0 0 4 4 5 10 3 10-1 7-2 5v5l5 2-4 12-2 12-18 1-15 2-1-4 3-3 4-1 9-4 5-2-1-5-1-3 4-10-2-4-4-3v-2l-5-2-1-5 1-3 7-5v-4l4-4 1-4 1 1z" fill="#F87692"/>
<path transform="translate(506,537)" d="m0 0h3l6 9 4 7v2h2l1 4h2l3 5v2h2l11 14 17 17 8 6 5 4v2l4 2 15 10 8 4 3 3 23 11 14 5v2l9 1 6 1v2l12 2 22 4 14 2v4h-11l-29-5-24-7-20-8-16-8-14-8-17-12-11-9-10-9-15-15-8-10-13-18-6-10z" fill="#101115"/>
<path transform="translate(1019,1132)" d="m0 0 3 3 3 18v7l-6 2h-15l-16-3-15-6-2-3 1-7 4-5 10-2 14 2 11-1 7-3z" fill="#343440"/>
<path transform="translate(1292,615)" d="m0 0 16 6 10 6 4 1 3 5v4l-24 8-5 1h-23l-10-2 2-4 8-8 9-7 4-2 2-4z" fill="#F97793"/>
<path transform="translate(160,539)" d="m0 0 8 6 8 5-1 14-4 23-4 11-12 24-2 5-2-1 2-7h-3l4-8 2-3-4 3h-4l-3-10 2-6 2-4 10-5h5l1 2 3-13 3-5h2l-2-3-5 3-4 2-9-6-5-6v-6l6-5 5-1 10 3 1 1 1-3-8-1-5-5z" fill="#57D1D8"/>
<path transform="translate(270,931)" d="m0 0 11 1h13v3l7 2 7 5 9 2 6 3 3 3-1 5-3 2h-20l-1-1h-14l-2 1h-6l-4-2h-6l-2-3v-18l3-1z" fill="#60627F"/>
<path transform="translate(707,116)" d="m0 0h17l27 2 26 4 28 7 28 10 21 10 1 5-12-5-21-9-27-9-34-7-13-2-12-1h-40l-21 2-31 6-19 5-25 9-24 11-16 9-14 9-11 8-2-2 15-11 22-13 16-8 21-9 19-7 16-5 17-4 31-4z" fill="#FCFCFC"/>
<path transform="translate(578,334)" d="m0 0 1 2-4 9-7 14h-2v6l-6 18-3 17-1 2v41l2 8 2 12 5 16 12 24 8 12 8 10 12 13 13 11 15 10 14 8 18 7 19 5 13 2h2v4l-15-2-19-5-16-6-16-8-15-10-11-9-12-11-9-11-10-14-9-16-8-20-5-19-2-12-1-12v-19l1-4h2v-9l4-20 5-15 6-13 8-15z" fill="#BCBBC4"/>
<path transform="translate(111,400)" d="m0 0h97l-1 3-16 8-5 4-4 8-1 15-5-1 1-6h-3v7l-4 1-1 5-2-1v-5l-1-3 2-6v-5l-6-12 1-4h3l1-2-12-2-33-2-11-1z" fill="#56D1D8"/>
<path transform="translate(251,980)" d="m0 0h43l27 2 18 3 6 2v1l-124 1-22-1 2-2 14-3 18-2z" fill="#FDFDFD"/>
<path transform="translate(932,1167)" d="m0 0h42l29 2 20 3 6 2-2 2h-46l-98-1 3-2 13-3 29-2z" fill="#FDFDFD"/>
<path transform="translate(204,953)" d="m0 0h2l2 2h17l7-2v2h4v2l10 1h5l2-3 6-1 6 3 1 1v6l-3 3-9 1-25 1-8 3-4 1h-9l-6-10v-8z" fill="#5F617F"/>
<path transform="translate(507,531)" d="m0 0 5 4 12 20 11 14 12 13 16 16 17 13 15 10 27 14 21 8 23 6 25 4 8 1-1 2-13-1v1l-12-1-21-5v-2l-9-1-6-1v-2l-6-1-19-8-15-8v-2l-6-2-11-7-10-7v-2l-3-1v-2l-5-2-7-6-18-18-7-9-1-3h-2l-3-5v-2h-2l-1-4h-2l-6-10-6-9z" fill="#9496A5"/>
<path transform="translate(1173,627)" d="m0 0 3 3 3 1h40l27-2 7-2 3 5-1 3-3 2-9 1h-29l-4 2-9 1-2 1h-18l-9-3-4-4-1-6z" fill="#FAF5F5"/>
<path transform="translate(970,526)" d="m0 0 6 5 10 4 6 3 3 2-3 17-2 6-12 1-9-16-1-3v-15z" fill="#FED1C4"/>
<path transform="translate(697,186)" d="m0 0h44l22 3 24 6 21 8 15 8 19 11 8 5v2l5 2-1 2-5-2-14-9-16-9-24-10-27-8-21-4-21-2h-21l-28 3-11 2h-6l4-3 14-3z" fill="#7F8296"/>
<path transform="translate(1300,342)" d="m0 0 5 1 5 6v2l-6 3-1 1v6l3 4 7-1 4-2v3l-5 2h-14l-14-4-5-3-1 2-10-1-1-4 4-4 14-6 13-3z" fill="#C883AB"/>
<path transform="translate(1212,1088)" d="m0 0 4 1-9 22-6 8-9 8-4 2-5-1-1-6 4-5 1 2-1-9-1-6 5-4 7-5h3l1 1v-3l9-4zm-20 12 1 7 2 4-1-8zm10 0 1 3zm-7 11v5h1v-5z" fill="#47B7D7"/>
<path transform="translate(691,260)" d="m0 0h7l2 3-21 3-18 5-13 5-18 10-16 11-6 5-5 6-6 5h-2l-1 4-9 11-3 6-4 1-9 16-8 20-5 21-2 15h-2v-7l4-20 7-21 8-16 8-14 11-14 11-12 11-10 16-11 16-9 11-5 7-1 18-5z" fill="#656678"/>
<path transform="translate(773,1134)" d="m0 0 1 3-9 22-8 11-10 7h-6l-2-3 4-4h3l-1-11-1-6 5-5 2 2-1-3 6-4 16-8zm-14 11 1 3zm1 4 1 3zm-8 5 1 11h1l-1-11z" fill="#45B5D7"/>
<path transform="translate(1112,71)" d="m0 0 5 2 4 9 3 9v5l-30-1v-7l4-8 8-7z" fill="#CE84AC"/>
<path transform="translate(507,642)" d="m0 0 6 4 9 8 13 10 21 14 15 9 27 13 18 7 27 8 26 5 24 3 1 2-8 1-27-4-26-6-30-10-24-11-20-11-18-12-19-14-9-8-6-3z" fill="#FCFCFC"/>
<path transform="translate(900,1140)" d="m0 0h7l-2 1 3 5v2l-7 3-6 2 2 6 5 3 1 3-2 4h13v1h-16l-18-7-3-4 1-6 4-5 10-4h2l1-3z" fill="#373743"/>
<path transform="translate(861,351)" d="m0 0 3 4 6 14 5 18 3 21v28l-3 21-6 21-5 12-9 17-2 4h-2v3h-2l-2 4-3 5-15 16-4 1 18-21 7-10 10-18 6-14 6-21 3-19 1-18-3-26-4-17-7-20z" fill="#FDFDFD"/>
<path transform="translate(1011,355)" d="m0 0h2l3 13 3 23 1 12v39l-4 33-6 26-6 20-6 17-3 2 1-6 10-31 6-24 4-26 1-11v-35l-2-22-4-25z" fill="#FCFCFC"/>
<path transform="translate(465,248)" d="m0 0 1 4-7 10-14 25-12 28-8 24-6 25-5 33-2 3-1-1 1-14 5-29 7-26 9-25 15-31 13-21z" fill="#FBFBFB"/>
<path transform="translate(885,554)" d="m0 0 2 4 1 4 9 3 6 7 5 15 5 3 24 1-1 3h-17l-12 5h-4l-3-13-12-16-3-9z" fill="#FED1C4"/>
<path transform="translate(1020,1135)" d="m0 0h2l2 12v10l-2 2-9 1-1-5-5 1-9-4 2-2 5 1-1-4 5-2-5-1v2l-4-2 1-4 16-3z" fill="#2D2E3E"/>
<path transform="translate(589,525)" d="m0 0 5 4 2-1 7 8 10 9 15 11 19 11 18 7 19 5 13 2h2v4l-15-2-19-5-16-6-16-8-15-10-11-9-12-11-6-7z" fill="#808496"/>
<path transform="translate(1279,360)" d="m0 0 5 2 14 4h14l5-1-1 8-5 3-7 2h-12l-9-5-4-6z" fill="#383946"/>
<path transform="translate(529,278)" d="m0 0 1 3-8 11-12 20-10 21-8 22-6 26-3 18-4 1 4-25 6-23 3-9 4-9 5-13h2l2-8h2l1-5 8-14 11-15z" fill="#BEBEC8"/>
<path transform="translate(263,429)" d="m0 0 3 1 2 4v15l-6 12-7 6-2-1v-17l2-6h2l1-5 2-5h2z" fill="#FDCFC5"/>
<path transform="translate(940,355)" d="m0 0h2l4 13 4 22 2 27-1 28-3 22-6 24-7 21h-3v-5h2l1-6 6-18 5-23 3-25v-23l-2-20-5-26z" fill="#FDFDFD"/>
<path transform="translate(233,942)" d="m0 0 4 2v4l7 1 14 5v1h-5l-2 4h-10l-5-2v-2l-5-1-6 2h-18l-2-3v-3l10 1h12l4-4z" fill="#908FA1"/>
<path transform="translate(507,531)" d="m0 0 5 4 12 20 11 14 12 13 16 16 6 5 3 5-5-2v-2l-5-2-7-6-18-18-7-9-1-3h-2l-3-5v-2h-2l-1-4h-2l-6-10-6-9z" fill="#D1D1D7"/>
<path transform="translate(92,821)" d="m0 0 1 3-1 7 7 11 5 7v2h-8l-5-4-9-3-1-1 1-9-3-1v-3l4 1z" fill="#45B4D7"/>
<path transform="translate(121,822)" d="m0 0h2l6 8 4 8v5l-12 5-3 3h-9l7-11 5-8z" fill="#46B3D6"/>
<path transform="translate(619,288)" d="m0 0 2 1-9 7-5 5-6 5-5 6-2 5-9 11-3 6-4 1-9 16-8 20-5 21-2 15h-2v-7l4-20 7-21 8-16 8-14 11-14 11-12 11-10z" fill="#5C5E6E"/>
<path transform="translate(762,1133)" d="m0 0h11l-3 3-18 8-8 6-4-1 4-3h2v-2l-10 1-7 4 1-4 8-6 11-4z" fill="#4BB9D8"/>
<path transform="translate(746,1149)" d="m0 0 2 1-4 5 2 4-1 11-4 3v3l3 2-9 1-4-3-3-7v-7h6l3 9 2 1-3-8v-6l4-4h3l2-4z" fill="#59D0D9"/>
<path transform="translate(1229,581)" d="m0 0 1 4 1 18v3l-6 1-5-2-3-1-1-9 4-4 6-9z" fill="#5DDAD9"/>
<path transform="translate(758,189)" d="m0 0 10 1 25 7 21 9 18 10 18 11v2l5 2-1 2-5-2-14-9-17-10-1-2-13-6-24-8-20-4v-2z" fill="#7A7C91"/>
<path transform="translate(923,1031)" d="m0 0h1l1 15v11l-1 6h-2l-1 5h-3v-2l-1-2h-2l-2-5 4 1v-18l1-2h2l-2-2v-5z" fill="#F97794"/>
<path transform="translate(111,400)" d="m0 0h97l-1 3-14 6v-2l-5-2-10-2-10-1-57-1z" fill="#42B2D7"/>
<path transform="translate(104,850)" d="m0 0 4 1h20l7 2-1 3h-55v-4l5-1z" fill="#3C3C4C"/>
<path transform="translate(183,414)" d="m0 0 1 4-2 5-1 15-5-1 1-6h-3v7l-4 1-1 5-2-1v-6l5-16 4-3 1 2 4-4h2z" fill="#5CD8D9"/>
<path transform="translate(1011,355)" d="m0 0h2l3 13 3 23 1 12v39l-1 11h-2v-46l-2-22-4-25z" fill="#FDFDFD"/>
<path transform="translate(827,539)" d="m0 0 54 1 2 9h-2l-2-5-11 1-35-2-6-2z" fill="#AB5AFC"/>
<path transform="translate(426,327)" d="m0 0 2 2-8 30-6 38-2 3-1-1 1-14 5-29 7-26z" fill="#F1F1F3"/>
<path transform="translate(1203,1086)" d="m0 0h8v2l-13 5-11 8h-3v-2l-2-1 2-1-6-1 2-4 12-4z" fill="#49B9D8"/>
<path transform="translate(641,565)" d="m0 0 9 3 15 6 19 5 13 2h2v4l-15-2-19-5-16-6-8-4z" fill="#8B8EA0"/>
<path transform="translate(616,134)" d="m0 0m-3 1h3v2l-21 8-19 9-16 9-14 9-11 8-2-2 15-11 22-13 16-8 21-9z" fill="#FDFDFD"/>
<path transform="translate(657,193)" d="m0 0 5 1-4 2-23 7-25 11-12 7h-3l1-3 12-7 25-11 19-6z" fill="#8D91A2"/>
<path transform="translate(840,526)" d="m0 0 2 2v9l38 1v2h-50v-3l7-7z" fill="#32323D"/>
<path transform="translate(914,580)" d="m0 0 5 1 4 4v2l9-1 2-5 7-1 5 4-6 4-23 1-8-2v-2z" fill="#33333E"/>
<path transform="translate(866,480)" d="m0 0 1 3-4 9-9 16-1 3h-2v3h-2l-2 4-3 5-15 16-4 1 18-21 7-10 10-18 4-10z" fill="#EFEFF1"/>
<path transform="translate(944,376)" d="m0 0 2 4 3 19 1 13v23l-3 25-5 23-2 3 1-13 1-4h2l1-11 2-16v-39l-3-22z" fill="#797B90"/>
<path transform="translate(578,334)" d="m0 0 1 2-4 9-7 14h-2v6l-6 18-3 17-2 9h-1v-11l4-20 5-15 6-13 8-15z" fill="#BFBFC9"/>
<path transform="translate(845,814)" d="m0 0h16l1 1v5h-32l3-3 3-2z" fill="#E374FE"/>
<path transform="translate(949,446)" d="m0 0h1v9l-5 25-6 20-3 11-4 1v-5h2l1-6 6-18 5-23 2-13z" fill="#F7F6F7"/>
<path transform="translate(792,277)" d="m0 0 6 2 15 10 11 9 10 9 7 8 14 18v3h-2l-6-9v-2h-2l-3-5-3-3-7-8-10-10-8-6-9-6v-2l-6-2-7-4z" fill="#31323D"/>
<path transform="translate(652,271)" d="m0 0m-2 1h2l-1 3-16 8-14 9-13 10-5 6-6 5-2-1 6-7h2l1-3 5-4h2l2-4 13-9 11-7z" fill="#84889A"/>
<path transform="translate(690,263)" d="m0 0h8v1l-7 1 3 2-20 4-11 3v-2l-13 5-3-1 8-4 24-7z" fill="#1C1D25"/>
<path transform="translate(1252,605)" d="m0 0 3 1 3 9-2 3h-17l4-1-2-5 1-2 8-1z" fill="#43B4D7"/>
<path transform="translate(887,559)" d="m0 0 2 2 8 1 5 5 5 12 2 8 16 1h12l1 2-4 1h-21l-5-3-3-8-4-9-5-6-8-2z" fill="#C27A97"/>
<path transform="translate(742,264)" d="m0 0 10 1 17 5 15 6 5 4-5-1-5-2-2 1-21-7-4-2 1-1-8-2z" fill="#21252F"/>
<path transform="translate(1439,568)" d="m0 0 1 3 1 4 5 7 4-1 6-7 1-3 3 1 1 7-12 6h-5l-4-5-5-2v-6z" fill="#E85C9F"/>
<path transform="translate(552,407)" d="m0 0h2l1 2v36l1 13-2-4-2-12-1-12v-19z" fill="#9093A3"/>
<path transform="translate(651,646)" d="m0 0 25 5 23 3-1 2-13-1v1l-12-1-21-5z" fill="#898998"/>
<path transform="translate(1236,359)" d="m0 0h14l-3 1v6l-2 2h-9l1 3-5 2-1 5-1-4z" fill="#5DDAD9"/>
<path transform="translate(754,191)" d="m0 0 13 1 23 6 21 8 7 4v2l-6-2-20-8-24-7-14-3z" fill="#FDFDFD"/>
<path transform="translate(865,354)" d="m0 0 74 1-1 2h-57l-13 2v5l-2-3z" fill="#383945"/>
<path transform="translate(816,539)" d="m0 0h9l-1 3-11 1-60-2v-1z" fill="#A45AFA"/>
<path transform="translate(969,523)" d="m0 0 4 2 17 9 4 2 1 4-4-2-13-5-6-4-2-2-1 3-1 11h-1v-16z" fill="#AA7A97"/>
<path transform="translate(1245,212)" d="m0 0 2 1v32l-1 9h-2v-41z" fill="#4A4757"/>
<path transform="translate(817,209)" d="m0 0 4 1 18 10 11 7v2l5 2-1 2-5-2-14-9-17-10z" fill="#9B9FAD"/>
<path transform="translate(923,1143)" d="m0 0h2l2 3 2-1 3 23-4 1h-14v-1l15-1v-5l-4-2 1-11-4-1-1-4z" fill="#444553"/>
<path transform="translate(554,434)" d="m0 0h1l2 15 1 2 2 12 5 16 1 5-2-1v-2h-2l-6-18-2-18z" fill="#DADADF"/>
<path transform="translate(488,362)" d="m0 0h1l-1 9-5 28-4 1 4-25 3-12z" fill="#A8ABB8"/>
<path transform="translate(790,278)" d="m0 0 6 2 9 5v2l5 2 9 7 9 8-4 1-2-4-4-2v-2h-3v-2l-6-2v-2l-5-2-7-4-2-1v-2l-4-1z" fill="#B3B4BF"/>
<path transform="translate(724,1161)" d="m0 0h4l1 9 4 8-6 2-3-4-1-4v-9z" fill="#60DADA"/>
<path transform="translate(499,326)" d="m0 0h2l-2 10-7 19-2 7h-2l-1 4v-7l5-16 4-9z" fill="#C2C5CD"/>
<path transform="translate(199,561)" d="m0 0 3 3 4 8v7l-6-1h-2l-1 5-2-1 3-14z" fill="#47B8D6"/>
<path transform="translate(1300,342)" d="m0 0 5 1 5 6v2l-6 3-4 1-2-6 1-6z" fill="#645E79"/>
<path transform="translate(1279,360)" d="m0 0 5 2 14 4h14l5-1-1 8-2 2h-3v-7h-18l-10-3z" fill="#5C5F79"/>
<path transform="translate(828,305)" d="m0 0 7 6v2l4 2 1 4 3 1 2 5h2l7 11-1 2-2-4-3-1-8-11-7-8-3-2z" fill="#BCBDC6"/>
<path transform="translate(701,259)" d="m0 0h24l9 1-1 2h-37l2-2z" fill="#A0A3B1"/>
<path transform="translate(738,186)" d="m0 0 20 2v2l2 1h-13l-21-2v-2z" fill="#999CAC"/>
<path transform="translate(416,366)" d="m0 0h2l-2 17-3 17-2-1 1-14 3-18z" fill="#D8D8DE"/>
<path transform="translate(1259,504)" d="m0 0h1v46h-1l-1-29-1-5-4-1-2-3 6 1z" fill="#42B2D7"/>
<path transform="translate(625,638)" d="m0 0 7 1 18 6 2 3-9-1-6-1v-2l-6-1-4-2v-2z" fill="#9699A8"/>
<path transform="translate(86,828)" d="m0 0v3l1 9 1 5-6-1-1-1 1-9-3-1v-3l4 1z" fill="#7DD0D5"/>
<path transform="translate(881,356)" d="m0 0h45v1l-13 1h-28l-12 2-2 2h-3l-1-3 7-2z" fill="#2C2C3D"/>
<path transform="translate(938,580)" d="m0 0 5 1 3 3-6 4h-8l1-6z" fill="#373744"/>
<path transform="translate(840,526)" d="m0 0 1 3-9 9 48 1v1h-50v-3l7-7z" fill="#5B5E74"/>
<path transform="translate(545,260)" d="m0 0 2 1-7 7-9 11h-3l2-4 9-11 4-3z" fill="#888A9C"/>
<path transform="translate(606,628)" d="m0 0 6 2 15 7-1 4-16-7-1-3z" fill="#888B9D"/>
<path transform="translate(619,288)" d="m0 0 2 1-9 7-5 5-6 5-7 8h-3l9-10 12-11z" fill="#383A48"/>
<path transform="translate(912,974)" d="m0 0 1 4-7 5-7 2-1-2 5-5z" fill="#FB7693"/>
<path transform="translate(988,850)" d="m0 0h2l1 5v20l-2-2-2-11z" fill="#F85298"/>
<path transform="translate(1174,627)" d="m0 0 13 3 32 1v1h-40l-5-3z" fill="#FE8796"/>
<path transform="translate(529,278)" d="m0 0 1 3-8 11-4 6-2-4 11-15z" fill="#A3A6B4"/>
<path transform="translate(1439,568)" d="m0 0 1 3 1 4 6 9-5-2-5-3-2-1v-6z" fill="#E4D7EF"/>
<path transform="translate(641,565)" d="m0 0 9 3 8 4 2 3-6-1-13-6z" fill="#8E8FA1"/>
<path transform="translate(593,622)" d="m0 0 6 1 7 4 5 5-3 1-11-6v-2l-4-2z" fill="#A6A6B2"/>
<path transform="translate(835,312)" d="m0 0 4 1 10 12 6 8v3h-2l-6-9v-2h-2l-3-5-3-3z" fill="#423F4E"/>
<path transform="translate(558,378)" d="m0 0h1v10l-2 12-2 9h-1v-11z" fill="#D5D6DC"/>
<path transform="translate(617,291)" d="m0 0 2 1zm-1 1m-1 1v3l-7 6-5 6-6 5-2-1 6-7h2l1-3 5-4h2l2-4z" fill="#A8ABB8"/>
<path transform="translate(657,193)" d="m0 0 5 1-4 2-17 5h-2l1-3 12-4z" fill="#9EA1AF"/>
<path transform="translate(239,948)" d="m0 0 5 1 9 3-2 2-9 1-3-1z" fill="#FAE5E0"/>
<path transform="translate(270,931)" d="m0 0 11 1h13v3h-13l-11-2zm-2 2 2 1-3 3z" fill="#898D9E"/>
<path transform="translate(758,189)" d="m0 0 10 1 15 4v2l-11-2-12-2v-2z" fill="#7F7E93"/>
<path transform="translate(539,575)" d="m0 0 7 6 15 15h-3l-7-6v-2l-4-2-8-9z" fill="#4C4D5D"/>
<path transform="translate(842,522)" d="m0 0v3l-12 13-5 2 6-7 7-8z" fill="#EFF0F2"/>
<path transform="translate(698,263)" d="m0 0h22v1l-18 2h-12l1-2z" fill="#0A0A0C"/>
<path transform="translate(938,589)" d="m0 0 3 3 2 3 3 1 2 5-1 3-9-9z" fill="#E374FE"/>
<path transform="translate(911,588)" d="m0 0h26l1 2-4 1-18-1-5-1z" fill="#837A91"/>
<path transform="translate(841,528)" d="m0 0 1 4v5l2 1h-9l1-5z" fill="#2C2C3D"/>
<path transform="translate(509,310)" d="m0 0 1 2-9 19-1-3 1-7h2l2-8h3z" fill="#ADAFBB"/>
<path transform="translate(946,455)" d="m0 0h1l-1 10-5 21-1-4 2-13h2l1-11z" fill="#6C6C7F"/>
<path transform="translate(1279,360)" d="m0 0 5 2 14 4 10 1v1h-15l-10-3z" fill="#855E7C"/>
<path transform="translate(665,266)" d="m0 0 3 1v2l-16 5 1-5z" fill="#797A8D"/>
<path transform="translate(742,264)" d="m0 0 10 1 11 3 1 2-8 1-4-2 1-1-8-2z" fill="#2B2D39"/>
<path transform="translate(658,572)" d="m0 0 11 3 7 2-3 3-11-3-3-2z" fill="#838699"/>
<path transform="translate(969,523)" d="m0 0 14 7-3 1-8-4h-2l-1 3-1 11h-1v-16z" fill="#B07292"/>
<path transform="translate(1300,342)" d="m0 0 5 1 5 6v2l-8 4 2-4h2l-4-6-3-2z" fill="#A38BA4"/>
<path transform="translate(215,598)" d="m0 0h3l3 5v5l-3 1v-2l-3 1z" fill="#46B8D7"/>
<path transform="translate(852,508)" d="m0 0 1 3h-2v3h-2l-2 4-3 5-4 1 2-4 6-8z" fill="#DCDCE1"/>
<path transform="translate(554,434)" d="m0 0h1l2 15 1 2 1 12-2-1-3-17z" fill="#F1F1F3"/>
<path transform="translate(975,1094)" d="m0 0 4 1 5 3 3 1 1 3-3 6-2-1 2-5-6-3z" fill="#F66C95"/>
<path transform="translate(79,852)" d="m0 0h17v1l-14 3h-3z" fill="#272B36"/>
<path transform="translate(790,278)" d="m0 0 6 2 9 5-1 4-7-4-2-1v-2l-4-1z" fill="#AEB0BB"/>
<path transform="translate(921,947)" d="m0 0h1l3 23-2 1-2-13-1-7z" fill="#FA7B95"/>
<path transform="translate(560,597)" d="m0 0 5 2 7 8-2 1-3-2v-2l-5-2-4-4z" fill="#C4C5CE"/>
<path transform="translate(514,193)" d="m0 0 2 1-7 8-3 3h-2v2l-3 1 2-4z" fill="#FDFDFD"/>
<path transform="translate(692,187)" d="m0 0h19v1l-17 2h-7l4-2z" fill="#A2A5B3"/>
<path transform="translate(681,654)" d="m0 0h9l10 2v2l-14-1-5-2z" fill="#C9C8D1"/>
<path transform="translate(887,559)" d="m0 0 2 2 8 1 5 5-1 4-5-6-8-2z" fill="#C17890"/>
<path transform="translate(1024,1153)" d="m0 0h1v7l-6 2h-15v-1l13-1 6-3z" fill="#515163"/>
<path transform="translate(552,251)" d="m0 0h3l-2 4-5 5-5 2 2-4z" fill="#C4C6CF"/>
<path transform="translate(638,198)" d="m0 0 2 1-2 3-11 4-1-3z" fill="#84889B"/>
<path transform="translate(1165,1122)" d="m0 0 5 1 2 5v3l-5-1z" fill="#65DBDB"/>
<path transform="translate(160,666)" d="m0 0 2 4 1 5h-5l-1-5v-2z" fill="#5EDBDA"/>
<path transform="translate(976,527)" d="m0 0 9 2 7 4 4 1v2l-4 1-5-4-11-5z" fill="#343542"/>
<path transform="translate(491,350)" d="m0 0h1l-1 9-1 3h-2l-1 4v-7l3-8z" fill="#C4C5CE"/>
<path transform="translate(744,567)" d="m0 0 4 4 4 5 2 7-5-5-5-8z" fill="#D871FD"/>
<path transform="translate(764,269)" d="m0 0 5 1 3 2-6 2-8-3v-1z" fill="#1D2029"/>
<path transform="translate(747,188)" d="m0 0h11v2l2 1h-13z" fill="#9D9EAD"/>
<path transform="translate(822,297)" d="m0 0 8 6 7 8h-3l-12-12z" fill="#363240"/>
<path transform="translate(918,1018)" d="m0 0 4 2v6l-4 2-1-1z" fill="#FB7793"/>
<path transform="translate(1e3 581)" d="m0 0 4 4-1 10-3-6z" fill="#E374FE"/>
<path transform="translate(483,387)" d="m0 0h1v7l-1 5-4 1 2-12z" fill="#8A8A9D"/>
<path transform="translate(971,526)" d="m0 0 9 4v2l5 1 1 2-10-3-5-4z" fill="#F3869A"/>
<path transform="translate(556,458)" d="m0 0 2 4 3 3v6l-2 2-3-10z" fill="#B1ABB8"/>
<path transform="translate(828,305)" d="m0 0 7 6 3 5-1 2-7-6z" fill="#A9AAB4"/>
<path transform="translate(783,195)" d="m0 0 7 1 8 3v2l-5-1-10-3z" fill="#7A7E92"/>
<path transform="translate(651,646)" d="m0 0 15 3v1h-8l-3 1-3-1z" fill="#818496"/>
<path transform="translate(1019,1132)" d="m0 0 2 1-1 3-3 2-13 2 1-2 9-2 4-2z" fill="#32323D"/>
<path transform="translate(606,628)" d="m0 0 6 2 6 3-3 1-1 2-4-2-1-3z" fill="#717286"/>
<path transform="translate(192,594)" d="m0 0 2 1-2 10-1-3h-2l-1 3-1-3 2-4h2z" fill="#4AB5D3"/>
<path transform="translate(563,367)" d="m0 0 1 3-4 13h-1v-8l1-4h2z" fill="#9FA1B0"/>
<path transform="translate(652,271)" d="m0 0m-2 1h2l-1 3-11 5 2-4z" fill="#828598"/>
<path transform="translate(973,1150)" d="m0 0 6 1 3 2v2l-7-1-2-1z" fill="#313143"/>
<path transform="translate(587,322)" d="m0 0 1 2-5 7-1 3h-3l2-5z" fill="#AAACB8"/>
<path transform="translate(594,316)" d="m0 0v3l-9 12-2-1 9-12z" fill="#272B37"/>
<path transform="translate(835,313)" d="m0 0 4 2 1 4 3 1 2 5-6-4-3-6z" fill="#C1C3CB"/>
<path transform="translate(498,209)" d="m0 0 2 1-2 3h-2l-2 4-3 1v2l-4 2 2-4 4-2v-2h2v-2z" fill="#FDFDFD"/>
<path transform="translate(625,638)" d="m0 0 7 1 3 1-1 3-5-1-2-1v-2z" fill="#ACAFBB"/>
<path transform="translate(566,356)" d="m0 0 1 3-2 8h-2l-2 4 1-5z" fill="#DADBE1"/>
<path transform="translate(686,187)" d="m0 0h6l-1 2-4 1h-7l-2-2z" fill="#7B7F93"/>
<path transform="translate(130,829)" d="m0 0 5 2v2l-4-1z" fill="#FE939D"/>
<path transform="translate(467,245)" d="m0 0 1 3h-2z" fill="#FDFDFD"/>
<path transform="translate(469,243)" d="m0 0 2 1h-3z" fill="#FDFDFD"/>
<path transform="translate(528,182)" d="m0 0 2 1h-3z" fill="#FDFDFD"/>
<path transform="translate(530,180)" d="m0 0 2 1-2 1z" fill="#FDFDFD"/>
<path transform="translate(1137,396)" d="m0 0" fill="#735BFE"/>
<path transform="translate(471,242)" d="m0 0" fill="#FDFDFD"/>
<path transform="translate(472,241)" d="m0 0" fill="#FDFDFD"/>
<path transform="translate(475,235)" d="m0 0" fill="#FDFDFD"/>
<path transform="translate(485,223)" d="m0 0" fill="#FDFDFD"/>
<path transform="translate(486,222)" d="m0 0" fill="#FDFDFD"/>
<path transform="translate(500,208)" d="m0 0" fill="#FDFDFD"/>
<path transform="translate(516,192)" d="m0 0" fill="#FDFDFD"/>
<path transform="translate(517,191)" d="m0 0" fill="#FDFDFD"/>
<path transform="translate(532,179)" d="m0 0" fill="#FDFDFD"/>
</svg>
